<?xml version="1.0" standalone="no"?>
<!DOCTYPE svg PUBLIC "-//W3C//DTD SVG 1.1//EN" "http://www.w3.org/Graphics/SVG/1.1/DTD/svg11.dtd" >
<svg xmlns="http://www.w3.org/2000/svg">
<metadata></metadata>
<defs>
<font id="chaletmedium" horiz-adv-x="224" >
<font-face units-per-em="1000" ascent="800" descent="-200" />
<missing-glyph horiz-adv-x="308" />
<glyph unicode="fi" horiz-adv-x="785" d="M721 0h-132v515h132v-515zM374 471q0 18 -5.5 35t-17 30.5t-29.5 21.5t-43 8q-24 0 -42 -8t-29.5 -21.5t-17 -30.5t-5.5 -35v-131h315v-127h-315v-213h-132v468q0 48 16 89.5t45.5 72t71 47.5t93.5 17t94 -17t71.5 -47.5t45.5 -72t16 -89.5v-43h-132v46zM721 571h-132 v123h132v-123z" />
<glyph unicode="fl" horiz-adv-x="788" d="M374 471q0 18 -5.5 35t-17 30.5t-29.5 21.5t-43 8q-24 0 -42 -8t-29.5 -21.5t-17 -30.5t-5.5 -35v-131h315v-127h-315v-213h-132v468q0 48 16 89.5t45.5 72t71 47.5t93.5 17t94 -17t71.5 -47.5t45.5 -72t16 -89.5v-43h-132v46zM726 0h-132v744h132v-744z" />
<glyph unicode="&#xd;" horiz-adv-x="308" />
<glyph unicode=" "  horiz-adv-x="308" />
<glyph unicode="&#x09;" horiz-adv-x="308" />
<glyph unicode="&#xa0;" horiz-adv-x="308" />
<glyph unicode="!" horiz-adv-x="287" d="M210 0h-132v131h132v-131zM210 207h-132v487h132v-487z" />
<glyph unicode="&#x22;" horiz-adv-x="373" d="M162 694l-23 -287h-84l-22 287h129zM340 694l-22 -287h-85l-21 287h128z" />
<glyph unicode="#" horiz-adv-x="538" d="M233 432l-25 -172h97l26 172h-98zM405 260h85l-14 -96h-86l-18 -127h-99l19 127h-99l-18 -127h-99l19 127h-86l14 96h85l25 172h-85l14 95h86l18 130h99l-18 -130h98l18 130h100l-19 -130h85l-14 -95h-85z" />
<glyph unicode="$" horiz-adv-x="493" d="M346 222q0 12 -2.5 22t-10 19t-21.5 16.5t-37 14.5v-140q29 5 50 21.5t21 46.5zM210 539q-27 -6 -42.5 -22t-15.5 -41q0 -20 13.5 -32.5t44.5 -23.5v119zM275 -12h-65v59q-37 4 -70 19.5t-58 40.5t-39.5 60.5t-14.5 80.5h114q0 -39 19.5 -61.5t48.5 -30.5v152 q-28 6 -58.5 17t-56 30t-42 47.5t-16.5 70.5q0 71 46 119t127 56v58h65v-58q80 -10 125.5 -61t45.5 -129h-115q0 29 -14.5 50.5t-41.5 29.5v-134q36 -9 69.5 -21t59 -31.5t41 -49t15.5 -72.5q0 -77 -48.5 -126t-136.5 -58v-58z" />
<glyph unicode="%" horiz-adv-x="815" d="M609 255q-32 0 -54 -23.5t-22 -56.5t22 -56.5t54 -23.5q31 0 53.5 23.5t22.5 56.5t-22.5 56.5t-53.5 23.5zM205 439q32 0 54 23.5t22 56.5t-22 56.5t-54 23.5q-31 0 -53 -23.5t-22 -56.5t22 -56.5t53 -23.5zM609 0q-38 0 -70 13.5t-55 37.5t-36.5 56t-13.5 68t13.5 68 t36.5 55.5t55 37.5t70 14q37 0 69 -14t55.5 -37.5t37 -55.5t13.5 -68t-13.5 -68t-37 -56t-55.5 -37.5t-69 -13.5zM544 694h107l-381 -694h-107zM205 694q37 0 69.5 -13.5t55.5 -37.5t36.5 -56t13.5 -68t-13.5 -67.5t-36.5 -55.5t-55.5 -37.5t-69.5 -13.5t-69 13.5 t-55.5 37.5t-37 55.5t-13.5 67.5t13.5 68t37 56t55.5 37.5t69 13.5z" />
<glyph unicode="&#x26;" horiz-adv-x="660" d="M237 322q-46 -27 -63 -56t-17 -58q0 -22 10 -40.5t27 -32.5t40.5 -22t50.5 -8q33 0 58 6.5t46 19.5zM235 548q0 -21 8.5 -37.5t22.5 -33.5l7 -8q63 37 63 84q0 22 -13.5 35.5t-36.5 13.5q-22 0 -36.5 -15t-14.5 -39zM464 37q-35 -24 -78.5 -36.5t-100.5 -12.5 q-53 0 -98.5 16.5t-80 46t-54 69.5t-19.5 88q0 36 11.5 66.5t30.5 55.5t43.5 44.5t49.5 34.5l-6 7q-24 30 -36 63t-12 65q0 36 13 66.5t36 53t54.5 35.5t69.5 13q37 0 67.5 -12.5t53 -35t35 -53t12.5 -66.5q0 -54 -32.5 -94.5t-80.5 -68.5l125 -156q8 26 11 57t1 67h118 q3 -64 -9 -123t-39 -104l98 -123h-153z" />
<glyph unicode="'" horiz-adv-x="195" d="M161 694l-22 -287h-85l-21 287h128z" />
<glyph unicode="(" horiz-adv-x="325" d="M317 790q-71 -93 -111.5 -208.5t-40.5 -244.5t40.5 -244.5t111.5 -208.5h-105q-38 39 -70 90.5t-54.5 110.5t-35 123t-12.5 129q0 64 12.5 128.5t35 123.5t54.5 110.5t70 90.5h105z" />
<glyph unicode=")" horiz-adv-x="325" d="M113 790q38 -39 70 -90.5t54.5 -110.5t35 -123.5t12.5 -128.5q0 -65 -12.5 -129t-35 -123t-54.5 -110.5t-70 -90.5h-104q71 93 111 208.5t40 244.5t-40 244.5t-111 208.5h104z" />
<glyph unicode="*" horiz-adv-x="391" d="M258 509l55 -90l-67 -39l-51 93l-51 -93l-66 39l54 90l-105 -2v77l105 -3l-55 92l67 38l51 -94l51 94l67 -38l-55 -92l106 3v-77z" />
<glyph unicode="+" horiz-adv-x="524" d="M328 215v-164h-132v164h-159v123h159v163h132v-163h159v-123h-159z" />
<glyph unicode="," horiz-adv-x="234" d="M188 -17q0 -68 -36 -104.5t-93 -42.5v62q31 7 46.5 29t15.5 55v18h-75v141h142v-158z" />
<glyph unicode="-" horiz-adv-x="331" d="M30 339h271v-123h-271v123z" />
<glyph unicode="." horiz-adv-x="234" d="M188 0h-142v141h142v-141z" />
<glyph unicode="/" horiz-adv-x="337" d="M213 744h137l-211 -744h-137z" />
<glyph unicode="0" horiz-adv-x="585" d="M293 109q42 0 67 26.5t38 63.5t17 76.5t4 65.5t-4 66t-17 77t-38 63.5t-67 26.5q-43 0 -68 -26.5t-38 -63.5t-17 -77t-4 -66t4 -65.5t17 -76.5t38 -63.5t68 -26.5zM293 695q46 0 92 -18.5t83 -60.5t59.5 -109.5t22.5 -165.5t-22.5 -165.5t-59.5 -109.5t-83 -60.5 t-92 -18.5q-47 0 -93 18.5t-83 60.5t-59.5 109.5t-22.5 165.5t22.5 165.5t59.5 109.5t83 60.5t93 18.5z" />
<glyph unicode="1" horiz-adv-x="420" d="M284 0h-132v484h-108v86q23 0 46 7.5t41.5 22.5t31 38.5t15.5 55.5h106v-694z" />
<glyph unicode="2" horiz-adv-x="563" d="M514 123v-123h-481v59q0 58 17.5 102.5t47 78.5t67 60t77.5 47q48 26 76.5 45.5t43 36t18.5 31t4 29.5q0 35 -23 60.5t-76 25.5q-52 0 -81 -35t-29 -89h-133q0 48 15.5 92t46 78.5t75.5 55t105 20.5t103.5 -18.5t72 -48t42.5 -67t14 -75.5q0 -49 -16 -84.5t-43.5 -63.5 t-65.5 -51.5t-83 -47.5q-53 -29 -89 -57.5t-39 -60.5h334z" />
<glyph unicode="3" horiz-adv-x="558" d="M526 207q0 -41 -16 -80.5t-47.5 -70t-78.5 -49.5t-109 -19t-108.5 18.5t-78 50t-47.5 74t-17 91.5h132q1 -53 32 -82.5t86 -29.5q57 0 88.5 28t31.5 71q0 88 -113 88h-44v115h27q62 0 86 22.5t24 57.5q0 38 -24.5 60.5t-70.5 22.5q-27 0 -46 -8.5t-32 -23t-19 -33 t-6 -37.5h-132q0 45 16 86t46 71.5t73.5 48.5t99.5 18q58 0 100.5 -16.5t70 -43.5t40.5 -61.5t13 -69.5q0 -45 -22 -82.5t-66 -58.5q30 -9 51.5 -25.5t34.5 -37.5t19 -45.5t6 -49.5z" />
<glyph unicode="4" horiz-adv-x="554" d="M327 533l-172 -275h172v275zM450 141v-141h-123v141h-303v117l272 436h154v-436h74v-117h-74z" />
<glyph unicode="5" horiz-adv-x="550" d="M518 223q0 -50 -19 -93t-52 -74.5t-78 -49.5t-98 -18t-96.5 15.5t-75.5 43t-50.5 65t-21.5 81.5h133q8 -38 37.5 -59t73.5 -21q21 0 42 6.5t37 20.5t26 35.5t10 51.5q0 52 -30.5 85t-79.5 33q-32 0 -60.5 -15.5t-47.5 -44.5l-119 32l41 377h385v-123h-283l-17 -145 q25 16 53.5 24.5t56.5 8.5q49 0 92 -17.5t74 -49t49 -75t18 -94.5z" />
<glyph unicode="6" horiz-adv-x="563" d="M405 220q0 24 -8 45t-23 37t-35.5 25t-45.5 9t-45.5 -9t-35.5 -25t-23 -37t-8 -45t8 -44.5t23 -36.5t35.5 -25t45.5 -9t45.5 9t35.5 25t23 36.5t8 44.5zM536 223q0 -51 -18 -94t-50.5 -74.5t-77 -49t-97.5 -17.5q-47 0 -93 17t-83 55.5t-59.5 100.5t-22.5 152 q0 91 18 163.5t52 123t83.5 77t111.5 26.5q93 0 152.5 -53t73.5 -144h-133q-6 29 -28.5 52t-64.5 23q-58 0 -90.5 -48.5t-40.5 -123.5q26 21 60.5 32.5t70.5 11.5q51 0 94 -17t74.5 -47t49.5 -72.5t18 -93.5z" />
<glyph unicode="7" horiz-adv-x="516" d="M499 578q-119 -97 -181 -244.5t-62 -333.5h-132q0 88 13.5 171t40 156.5t66 135t91.5 108.5h-318v123h482v-116z" />
<glyph unicode="8" horiz-adv-x="557" d="M398 206q0 27 -10.5 46t-27 31.5t-38.5 18.5t-44 6t-43.5 -6t-38 -18.5t-27 -31.5t-10.5 -46t10.5 -46t27.5 -32t38.5 -19t42.5 -6q22 0 43.5 6t38.5 19t27.5 32t10.5 46zM185 508q0 -20 8 -35.5t21 -26t30 -16t34 -5.5q18 0 34.5 5.5t30 16t21.5 26t8 35.5 q0 21 -8.5 36.5t-22 25t-30 14.5t-33.5 5t-33.5 -5t-30 -14.5t-21.5 -25t-8 -36.5zM526 200q0 -45 -19 -84t-52 -67.5t-78.5 -44.5t-98.5 -16t-98 16t-78 44.5t-52 67.5t-19 84q0 55 27 100t74 73q-34 26 -53 62.5t-19 80.5q0 40 16.5 74.5t45.5 59.5t69 39t87 14t87 -14 t69.5 -39t46 -59.5t16.5 -74.5q0 -44 -19 -80t-53 -62q48 -28 74.5 -72.5t26.5 -101.5z" />
<glyph unicode="9" horiz-adv-x="561" d="M382 465q0 25 -8 47.5t-23 39t-35.5 26t-45.5 9.5t-45.5 -9.5t-35.5 -26t-23 -39t-8 -47.5t8 -46.5t23 -38t35.5 -26t45.5 -9.5t45.5 9.5t35.5 26t23 38t8 46.5zM267 -12q-88 0 -147 46.5t-77 123.5h142q8 -20 28.5 -34.5t54.5 -14.5q66 0 95.5 47t33.5 132 q-21 -26 -58.5 -41t-78.5 -15q-48 0 -90.5 17t-74 47.5t-50 73.5t-18.5 95t18 95.5t50.5 75t77 49.5t97.5 18q49 0 94.5 -17t81 -55.5t57.5 -100.5t23 -152q1 -92 -14 -164.5t-47 -122.5t-81.5 -76.5t-116.5 -26.5z" />
<glyph unicode=":" horiz-adv-x="245" d="M194 0h-142v141h142v-141zM194 356h-142v141h142v-141z" />
<glyph unicode=";" horiz-adv-x="245" d="M52 0v141h142v-158q0 -68 -36 -104.5t-93 -42.5v62q31 7 46 29t15 55v18h-74zM194 356h-142v141h142v-141z" />
<glyph unicode="&#x3c;" horiz-adv-x="449" d="M161 276l257 -109v-135l-387 178v131l387 179v-136z" />
<glyph unicode="=" horiz-adv-x="505" d="M468 103h-431v122h431v-122zM468 327h-431v123h431v-123z" />
<glyph unicode="&#x3e;" horiz-adv-x="450" d="M419 210l-388 -178v135l257 109l-257 108v136l388 -179v-131z" />
<glyph unicode="?" horiz-adv-x="552" d="M330 0h-132v131h132v-131zM33 484q0 50 16.5 91.5t48 71.5t75.5 46.5t100 16.5q55 0 98.5 -15t73.5 -42t45.5 -64.5t15.5 -81.5q0 -31 -9 -56t-25 -46t-37 -39t-46 -34q-35 -23 -49.5 -46.5t-14.5 -55.5v-23h-121v23q0 39 9.5 68t25.5 51t35 38t39 30q34 24 48 44t14 46 q0 36 -27 59t-75 23q-54 0 -81.5 -30t-27.5 -75h-131z" />
<glyph unicode="@" horiz-adv-x="745" d="M416 349q11 35 3.5 59.5t-30.5 24.5q-22 0 -45.5 -23.5t-35.5 -60.5q-11 -35 -3.5 -59.5t30.5 -24.5t46.5 24.5t34.5 59.5zM713 153q-51 -81 -128.5 -123.5t-186.5 -42.5q-77 0 -144 27t-116.5 75.5t-78 114.5t-28.5 144q0 77 28 143t76 115t113 76.5t139 27.5 q61 0 120 -18.5t105 -55.5t74 -93t28 -132q0 -49 -15 -92.5t-41.5 -76t-62 -51.5t-75.5 -19q-35 0 -61 15t-40 39q-21 -27 -47.5 -41.5t-55.5 -14.5q-31 0 -55.5 14.5t-39 41t-17 62.5t9.5 78q10 34 28.5 63t41.5 50.5t50 33.5t53 12q24 0 43 -11t30 -31l8 26h90 q-5 -14 -15 -46t-20 -65q-12 -39 -25 -83q-8 -26 1 -39t25 -13q19 0 35.5 12t29 32.5t19.5 46.5t7 54q0 55 -20 95.5t-52.5 66t-73 38t-82.5 12.5q-53 0 -100 -21.5t-82 -58.5t-55 -86.5t-20 -105.5q0 -58 20.5 -107.5t56.5 -85.5t85 -56.5t106 -20.5q62 0 113 21t83 54h119 z" />
<glyph unicode="A" horiz-adv-x="667" d="M331 547l-97 -285h194zM193 139l-47 -139h-140l242 694h167l242 -694h-140l-47 139h-277z" />
<glyph unicode="B" horiz-adv-x="651" d="M485 209q0 44 -26.5 67.5t-77.5 23.5h-185v-179h188q19 0 37 4t32.5 14.5t23 27t8.5 42.5zM196 574v-153h188q34 0 57.5 21t23.5 56t-21.5 55.5t-59.5 20.5h-188zM620 204q0 -47 -15 -84.5t-43.5 -64t-69 -41t-90.5 -14.5h-338v694h320q105 0 157 -50t52 -138 q0 -44 -18 -78.5t-50 -57.5q45 -23 70 -64.5t25 -101.5z" />
<glyph unicode="C" horiz-adv-x="708" d="M684 220q-17 -53 -46.5 -96t-70 -73t-90.5 -46.5t-108 -16.5q-71 0 -132.5 28t-106.5 77t-71 115t-26 142t26 142t71 115t106.5 77t132.5 28q59 0 109.5 -16t91 -46t70 -73t45.5 -96h-143q-23 48 -68 79t-105 31q-43 0 -80 -19t-64.5 -52t-43.5 -77t-16 -93q0 -50 16 -94 t43.5 -77t64.5 -52t80 -19q60 0 105 32t68 80h142z" />
<glyph unicode="D" horiz-adv-x="667" d="M502 348q0 38 -7.5 77.5t-27.5 72t-55 53t-91 20.5h-125v-448h125q59 0 94.5 23.5t55 57.5t25.5 73t6 71zM634 347q0 -80 -22 -144t-63 -109t-99 -69.5t-129 -24.5h-257v694h257q72 0 130 -24t98.5 -69t62.5 -109.5t22 -144.5z" />
<glyph unicode="E" horiz-adv-x="608" d="M578 0h-514v694h507v-123h-375v-148h320v-123h-320v-177h382v-123z" />
<glyph unicode="F" horiz-adv-x="586" d="M196 406h313v-123h-313v-283h-132v694h496v-123h-364v-165z" />
<glyph unicode="G" horiz-adv-x="748" d="M698 0h-122v75q-35 -42 -88 -64.5t-118 -22.5q-71 0 -132.5 28t-107 76.5t-71.5 114.5t-26 142t26 142t71.5 115t107 77t132.5 28q58 0 108.5 -16t91 -45.5t70 -72.5t45.5 -97h-142q-10 23 -27 43t-39.5 35t-49.5 24t-57 9q-43 0 -80.5 -19.5t-65 -52.5t-43.5 -77 t-16 -93t16.5 -93t45 -77t67 -52t82.5 -19q37 0 69.5 12t58.5 33t45 49t28 61h-188v123h309v-386z" />
<glyph unicode="H" horiz-adv-x="690" d="M625 0h-132v293h-296v-293h-133v694h133v-278h296v278h132v-694z" />
<glyph unicode="I" horiz-adv-x="265" d="M199 0h-132v694h132v-694z" />
<glyph unicode="J" horiz-adv-x="528" d="M243 -13q-52 0 -93.5 17.5t-71 48t-45.5 72t-16 89.5v48h132v-52q0 -18 5.5 -34.5t17 -30t29.5 -21.5t42 -8q25 0 43 8t29.5 21.5t17 30t5.5 34.5v484h132v-480q0 -48 -16 -89.5t-45.5 -72t-71.5 -48t-94 -17.5z" />
<glyph unicode="K" horiz-adv-x="648" d="M197 237v-237h-133v694h133v-280l261 280h182l-282 -290l294 -404h-172l-215 308z" />
<glyph unicode="L" horiz-adv-x="559" d="M197 123h345v-123h-478v694h133v-571z" />
<glyph unicode="M" horiz-adv-x="811" d="M747 0h-130v509l-141 -509h-141l-141 509v-509h-130v694h196l145 -520l145 520h197v-694z" />
<glyph unicode="N" horiz-adv-x="702" d="M638 0h-159l-283 494v-494h-132v694h159l282 -494v494h133v-694z" />
<glyph unicode="O" horiz-adv-x="745" d="M373 113q43 0 80.5 18.5t65.5 51t44 75.5t16 92q0 48 -16 91t-44 75.5t-65.5 51t-80.5 18.5t-81 -18.5t-66 -51t-44 -75.5t-16 -91q0 -49 16 -92t44 -75.5t66 -51t81 -18.5zM373 711q73 0 135.5 -28t107.5 -77t70.5 -115t25.5 -141q0 -76 -25.5 -142t-70.5 -115 t-107.5 -77t-135.5 -28q-74 0 -136.5 28t-107.5 77t-70.5 115t-25.5 142q0 75 25.5 141t70.5 115t107.5 77t136.5 28z" />
<glyph unicode="P" horiz-adv-x="610" d="M196 571v-202h159q46 0 72 24t26 77t-26 77t-72 24h-159zM585 470q0 -48 -16 -89t-45.5 -70.5t-71.5 -46t-93 -16.5h-163v-248h-132v694h292q54 0 97 -16t72 -45t44.5 -70.5t15.5 -92.5z" />
<glyph unicode="Q" horiz-adv-x="745" d="M332 233h150l41 -44q26 32 41 73t15 88q0 48 -16.5 91t-44.5 75.5t-65.5 51t-79.5 18.5q-43 0 -81 -18.5t-66 -51t-44.5 -75.5t-16.5 -91q0 -49 16.5 -92t44.5 -75.5t66 -51t81 -18.5q31 0 62 11zM528 25q-71 -37 -155 -37q-74 0 -136.5 28t-107.5 77t-70.5 115 t-25.5 142q0 75 25.5 141t70.5 115t107.5 77t136.5 28q73 0 135 -28t107 -77t70.5 -115t25.5 -141q0 -77 -25.5 -143t-70.5 -115l98 -104h-150z" />
<glyph unicode="R" horiz-adv-x="669" d="M384 387q6 0 23 2.5t35 12t31.5 28t13.5 50.5q0 9 -1.5 24t-11.5 30t-31.5 26t-61.5 11h-185v-184h188zM598 0h-132v182q0 45 -21.5 65.5t-68.5 20.5h-180v-268h-132v694h317q109 0 173.5 -54.5t64.5 -152.5q0 -60 -26 -98.5t-71 -59.5q37 -20 56.5 -56.5t19.5 -91.5 v-181z" />
<glyph unicode="S" horiz-adv-x="647" d="M321 712q69 0 119 -20t82.5 -52.5t48.5 -73.5t16 -82h-132q0 45 -35.5 75t-98.5 30q-26 0 -50.5 -5t-43.5 -15t-30 -25t-11 -35q0 -36 36.5 -53.5t116.5 -33.5q62 -12 111.5 -27.5t84.5 -39.5t54 -60t19 -89q0 -50 -20 -90.5t-57.5 -69t-90.5 -43.5t-119 -15 q-51 0 -102 14.5t-91.5 44t-65.5 75t-25 108.5h132q0 -31 14 -53.5t36 -37.5t49 -22.5t53 -7.5q28 0 56 5t50 16.5t35.5 29t13.5 42.5q0 16 -7.5 30t-26.5 25.5t-50.5 21.5t-79.5 19t-94.5 22.5t-82.5 37t-58.5 60t-22.5 92.5q0 45 19 82t54 63.5t84 41.5t110 15z" />
<glyph unicode="T" horiz-adv-x="536" d="M334 571v-571h-132v571h-186v123h504v-123h-186z" />
<glyph unicode="U" horiz-adv-x="650" d="M593 275q0 -66 -17.5 -119.5t-51 -90.5t-83.5 -57t-116 -20t-115.5 20t-83.5 57t-51 90.5t-17 119.5v419h132v-423q0 -155 135 -155t135 155v423h133v-419z" />
<glyph unicode="V" horiz-adv-x="604" d="M373 0h-142l-228 694h140l159 -535l158 535h140z" />
<glyph unicode="W" horiz-adv-x="890" d="M699 0h-146l-107 523l-108 -523h-145l-190 694h140l119 -505l104 505h160l103 -505l120 505h139z" />
<glyph unicode="X" horiz-adv-x="609" d="M305 243l-146 -243h-157l224 355l-214 339h156l137 -227l137 227h157l-214 -339l223 -355h-156z" />
<glyph unicode="Y" horiz-adv-x="595" d="M364 0h-133v266l-233 428h149l150 -297l151 297h149l-233 -428v-266z" />
<glyph unicode="Z" horiz-adv-x="593" d="M567 0h-542v118l372 453h-360v123h521v-117l-372 -454h381v-123z" />
<glyph unicode="[" horiz-adv-x="317" d="M182 -13h122v-108h-240v940h240v-108h-122v-724z" />
<glyph unicode="\" horiz-adv-x="338" d="M198 0l-211 744h138l210 -744h-137z" />
<glyph unicode="]" horiz-adv-x="337" d="M273 -121h-250v108h127v724h-127v108h250v-940z" />
<glyph unicode="^" horiz-adv-x="554" d="M277 563l-112 -305h-132l179 436h130l179 -436h-132z" />
<glyph unicode="_" horiz-adv-x="806" d="M808 -193h-810v123h810v-123z" />
<glyph unicode="`" horiz-adv-x="417" d="M206 746l92 -144h-96l-140 144h144z" />
<glyph unicode="a" horiz-adv-x="621" d="M427 256q0 31 -10.5 58t-28.5 47t-42 31.5t-51 11.5t-51 -11.5t-42 -31t-28.5 -47t-10.5 -58.5t10.5 -57.5t28.5 -46t42 -30.5t51 -11t51 11.5t42 31t28.5 46t10.5 56.5zM559 0h-126v55q-30 -32 -70 -49t-88 -17q-50 0 -94.5 20.5t-78 56.5t-53 85t-19.5 106t19.5 106.5 t53 85.5t78 56.5t94.5 20.5q48 0 88 -17t70 -49v55h126v-515z" />
<glyph unicode="b" horiz-adv-x="619" d="M457 256q0 31 -10.5 58.5t-28.5 47t-42 31t-51 11.5t-51 -11.5t-42 -31.5t-28.5 -47t-10.5 -58q0 -30 10.5 -56.5t28.5 -46t42 -31t51 -11.5t51 11t42 30.5t28.5 46t10.5 57.5zM589 257q0 -57 -19.5 -106t-52.5 -85t-77.5 -56.5t-95.5 -20.5q-47 0 -87 17t-70 49v-55 h-127v744h133v-278q29 29 67.5 44.5t83.5 15.5q51 0 95.5 -20.5t77.5 -56.5t52.5 -85.5t19.5 -106.5z" />
<glyph unicode="c" horiz-adv-x="571" d="M545 174q-23 -88 -89 -137t-160 -49q-58 0 -107 21t-84 57.5t-55 85.5t-20 105t20 105.5t55 86t84 58t107 21.5q94 0 159.5 -49t88.5 -137h-141q-14 26 -42.5 45.5t-64.5 19.5q-27 0 -51 -12t-42 -32.5t-28.5 -48t-10.5 -58.5q0 -30 10.5 -57t28.5 -47.5t42 -32t51 -11.5 q37 0 66 19.5t42 46.5h141z" />
<glyph unicode="d" horiz-adv-x="622" d="M427 256q0 31 -10.5 58t-28.5 47t-42 31.5t-51 11.5t-51 -11.5t-42 -31t-28.5 -47t-10.5 -58.5t10.5 -57.5t28.5 -46t42 -30.5t51 -11t51 11.5t42 31t28.5 46t10.5 56.5zM559 0h-126v55q-31 -32 -70.5 -49t-87.5 -17q-50 0 -94.5 20.5t-78 56.5t-53 85t-19.5 106 t19.5 106.5t53 85.5t78 56.5t94.5 20.5q45 0 83.5 -15.5t68.5 -44.5v278h132v-744z" />
<glyph unicode="e" horiz-adv-x="585" d="M422 314q-12 45 -46.5 71.5t-82.5 26.5q-45 0 -79 -26.5t-48 -71.5h256zM164 206q13 -48 47.5 -75t81.5 -27q33 0 62.5 14.5t46.5 45.5h141q-23 -79 -87.5 -127.5t-161.5 -48.5q-54 0 -102 21t-84 57.5t-57 85.5t-21 105t21 105.5t57 86t84 58t102 21.5q57 0 107.5 -21.5 t86.5 -63t54 -101.5t11 -136h-389z" />
<glyph unicode="f" horiz-adv-x="536" d="M374 475q0 18 -5.5 34.5t-17 30t-29.5 21.5t-42 8t-42 -8t-30 -21.5t-17.5 -30t-5.5 -34.5v-135h316v-124h-316v-216h-132v468q0 48 16 89.5t45.5 72t71.5 47.5t94 17t93.5 -17t71 -47.5t45.5 -72t16 -89.5v-43h-132v50z" />
<glyph unicode="g" horiz-adv-x="612" d="M427 256q0 31 -10.5 58t-28.5 47t-42 31.5t-51 11.5t-51 -11.5t-42 -31t-28.5 -47t-10.5 -58.5t10.5 -57.5t28.5 -46t42 -30.5t51 -11t51 11.5t42 31t28.5 46t10.5 56.5zM559 26q0 -64 -18.5 -115.5t-53 -87.5t-84 -55.5t-111.5 -19.5q-46 0 -88 13t-75.5 36.5 t-56.5 56.5t-30 74h145q6 -15 18.5 -26t27 -18t30 -10t29.5 -3q70 0 102.5 42t32.5 111v25q-30 -29 -68.5 -44.5t-83.5 -15.5q-50 0 -94.5 20.5t-78 56.5t-53 85t-19.5 106t19.5 106.5t53 85.5t78 56.5t94.5 20.5q48 0 87.5 -17t70.5 -49v55h126v-489z" />
<glyph unicode="h" horiz-adv-x="577" d="M521 0h-132v301q0 11 -3 28t-13 32.5t-29 26.5t-51 11q-45 0 -72.5 -27t-27.5 -71v-301h-133v744h133v-256q25 19 54.5 29.5t63.5 10.5q47 0 86 -16.5t66.5 -46t42.5 -71.5t15 -93v-301z" />
<glyph unicode="i" horiz-adv-x="259" d="M195 0h-132v515h132v-515zM195 571h-132v123h132v-123z" />
<glyph unicode="j" horiz-adv-x="239" d="M187 -63q0 -51 -15 -85.5t-42.5 -54t-66.5 -25.5t-88 1v117q40 -4 59.5 9.5t19.5 52.5v563h133v-578zM187 571h-133v123h133v-123z" />
<glyph unicode="k" horiz-adv-x="558" d="M192 148v-148h-132v744h132v-416l169 187h182l-192 -201l203 -314h-168l-128 217z" />
<glyph unicode="l" horiz-adv-x="257" d="M195 0h-132v744h132v-744z" />
<glyph unicode="m" horiz-adv-x="905" d="M849 0h-132v301q0 11 -3 28.5t-13 34t-29 28t-51 11.5q-45 0 -72.5 -29t-27.5 -73v-301h-133v301q0 11 -3 28.5t-12.5 34t-28.5 28t-52 11.5q-44 0 -71.5 -29t-27.5 -73v-301h-133v515h127v-50q24 29 57.5 46t75.5 17q48 0 87.5 -19t66.5 -54q28 34 67.5 53.5t89.5 19.5 q52 0 92.5 -16.5t68.5 -46.5t42.5 -71.5t14.5 -92.5v-301z" />
<glyph unicode="n" horiz-adv-x="577" d="M520 0h-132v301q0 11 -3 28.5t-12.5 34t-28.5 28t-52 11.5q-45 0 -72.5 -29t-27.5 -73v-301h-132v515h126v-50q25 29 58 46t75 17q45 0 82.5 -16.5t63.5 -46t40.5 -71.5t14.5 -93v-301z" />
<glyph unicode="o" horiz-adv-x="579" d="M289 109q26 0 49 10.5t40.5 30t27.5 46.5t10 60t-10 61t-27.5 48t-40.5 31t-49 11t-49.5 -11t-40.5 -31t-27 -48t-10 -61t10 -60t27 -46.5t40.5 -30t49.5 -10.5zM289 528q54 0 101 -20.5t82.5 -57t56 -86t20.5 -107.5t-20.5 -107t-56 -85t-82.5 -56.5t-101 -20.5 t-101 20.5t-82 56.5t-55.5 85t-20.5 107t20.5 107.5t55.5 86t82 57t101 20.5z" />
<glyph unicode="p" horiz-adv-x="619" d="M457 259q0 31 -10.5 57.5t-28.5 46t-42 30.5t-51 11t-51 -11.5t-42 -31t-28.5 -46t-10.5 -56.5t10.5 -57t28.5 -47t42 -31.5t51 -11.5t51 11t42 31t28.5 46.5t10.5 58.5zM589 259q0 -57 -19.5 -106.5t-52.5 -86t-77.5 -57t-95.5 -20.5q-45 0 -83.5 16t-67.5 45v-279h-133 v744h127v-54q30 31 70 48.5t87 17.5q51 0 95.5 -20.5t77.5 -56.5t52.5 -85t19.5 -106z" />
<glyph unicode="q" horiz-adv-x="620" d="M427 259q0 30 -10.5 56.5t-28.5 46t-42 31t-51 11.5t-51 -11t-42 -30.5t-28.5 -46t-10.5 -57.5q0 -32 10.5 -58.5t28.5 -46.5t42 -31t51 -11t51 11.5t42 31.5t28.5 47t10.5 57zM559 -229h-132v279q-30 -29 -68.5 -45t-83.5 -16q-50 0 -94.5 20.5t-78 57t-53 86 t-19.5 106.5t19.5 106t53 85t78 56.5t94.5 20.5q48 0 87.5 -17.5t70.5 -48.5v54h126v-744z" />
<glyph unicode="r" horiz-adv-x="549" d="M520 275h-132v26q0 11 -3 28.5t-12.5 34t-28.5 28t-52 11.5q-45 0 -72.5 -29t-27.5 -73v-301h-132v515h126v-50q25 29 58 46t75 17q45 0 82.5 -16.5t63.5 -46t40.5 -71.5t14.5 -93v-26z" />
<glyph unicode="s" horiz-adv-x="526" d="M495 162q0 -38 -17 -70t-47 -55t-71.5 -36t-90.5 -13t-91 12.5t-74 36t-52.5 56.5t-26.5 75h134q7 -17 19.5 -28t27.5 -18.5t31.5 -10.5t31.5 -3q40 0 66.5 11.5t26.5 34.5q0 11 -4 19t-16 14t-33 11.5t-55 10.5q-35 5 -72.5 13.5t-69.5 25.5t-52.5 44.5t-20.5 70.5 q0 30 13.5 60t40.5 53t68.5 37.5t97.5 14.5q44 0 82 -11.5t67.5 -32.5t48.5 -51t25 -66h-137q-6 18 -27.5 30.5t-58.5 12.5q-46 0 -66 -13.5t-20 -27.5q0 -20 27 -29t75 -17t88.5 -18.5t69.5 -28t45.5 -45t16.5 -69.5z" />
<glyph unicode="t" horiz-adv-x="544" d="M506 215q0 -49 -16 -90.5t-45.5 -72t-71 -47.5t-93.5 -17t-94 17t-71.5 47.5t-45.5 72t-16 90.5v431h132v-131h316v-124h-316v-183q0 -18 5.5 -35t17 -30.5t29.5 -21.5t43 -8q24 0 42 8t29.5 21.5t17 30.5t5.5 35v49h132v-42z" />
<glyph unicode="u" horiz-adv-x="576" d="M516 0h-126v47q-24 -28 -57 -43.5t-74 -15.5q-46 0 -83.5 16.5t-64 46t-41 71t-14.5 92.5v301h132v-301q0 -11 3 -28t13 -33.5t29 -28t51 -11.5q45 0 72.5 29t27.5 72v301h132v-515z" />
<glyph unicode="v" horiz-adv-x="533" d="M338 0h-142l-195 515h138l128 -384l129 384h136z" />
<glyph unicode="w" horiz-adv-x="784" d="M621 0h-136l-93 341l-93 -341h-137l-160 515h140l90 -360l94 360h132l94 -360l90 360h140z" />
<glyph unicode="x" horiz-adv-x="513" d="M364 0l-107 175l-108 -175h-149l180 266l-169 249h150l96 -157l95 157h150l-169 -249l180 -266h-149z" />
<glyph unicode="y" horiz-adv-x="572" d="M516 -21q0 -52 -16.5 -94.5t-46.5 -73t-72 -47t-94 -16.5q-42 0 -80 13t-67.5 37t-49.5 57t-27 73h137q6 -29 29.5 -43t57.5 -14q27 0 45.5 8.5t30 23t16.5 32t5 35.5v60q-23 -20 -53 -31t-65 -11q-47 0 -86 16.5t-66.5 46t-42.5 71t-15 92.5v301h132v-301q0 -11 3 -28 t13 -33.5t29 -28t51 -11.5q45 0 72.5 28.5t27.5 72.5v301h132v-536z" />
<glyph unicode="z" horiz-adv-x="493" d="M471 0h-450v114l272 282h-261v119h430v-118l-267 -278h276v-119z" />
<glyph unicode="{" horiz-adv-x="334" d="M312 701q-41 3 -59 -20t-18 -60v-131q0 -110 -76 -145q38 -19 57 -54.5t19 -91.5v-131q0 -37 18 -60t59 -20v-98q-91 -8 -143.5 34t-52.5 139v125q0 60 -27 84.5t-70 24.5v95q43 0 70 25t27 85v125q0 96 52.5 138t143.5 33v-97z" />
<glyph unicode="|" horiz-adv-x="268" d="M68 0v744h132v-744h-132z" />
<glyph unicode="}" horiz-adv-x="334" d="M315 297q-43 0 -70 -24.5t-27 -84.5v-125q0 -96 -52.5 -138.5t-142.5 -34.5v98q40 -3 58 20t18 60v131q0 56 19 91.5t57 54.5q-76 35 -76 145v131q0 37 -18 60t-58 20v97q91 9 143 -33t52 -138v-125q0 -60 27 -85t70 -25v-95z" />
<glyph unicode="~" horiz-adv-x="417" d="M273 681q20 0 31.5 12.5t17.5 29.5h55q-6 -52 -34.5 -86t-71.5 -34q-21 0 -37.5 7t-31.5 15.5t-29 15.5t-30 7q-20 0 -31.5 -12.5t-17.5 -29.5h-54q5 52 33.5 86t71.5 34q21 0 37.5 -7t31.5 -15.5t29 -15.5t30 -7z" />
<glyph unicode="&#xa1;" horiz-adv-x="287" d="M78 488h132v-488h-132v488zM78 695h132v-131h-132v131z" />
<glyph unicode="&#xa2;" horiz-adv-x="535" d="M284 415h-8q-27 0 -50.5 -11.5t-40 -32t-26 -49t-9.5 -61.5q0 -40 13 -72.5t36 -52.5zM506 186q-10 -43 -30.5 -78t-50.5 -60t-68 -39t-83 -14q-13 0 -25 1.5t-24 3.5l-33 -110h-68l40 131q-62 32 -98 95t-36 145q0 57 18 105.5t50.5 84.5t77.5 56t98 20q11 0 21.5 -1 t21.5 -3l33 108h68l-39 -127q47 -23 79.5 -65t46.5 -98h-121q-7 17 -17 29.5t-22 22.5l-87 -285q5 -1 9 -1.5t9 -0.5q38 0 67 21.5t43 58.5h120z" />
<glyph unicode="&#xa3;" horiz-adv-x="558" d="M549 47q-29 -28 -58.5 -41.5t-58 -15.5t-56.5 4.5t-53 17.5q-56 24 -101.5 20.5t-98.5 -42.5l-72 102q47 25 77.5 64.5t30.5 84.5q0 11 -1 20.5t-4 18.5h-111v87h65q-16 24 -28 53.5t-12 71.5q0 46 17 84.5t47.5 66t73 42.5t93.5 15q52 0 95.5 -16.5t74.5 -45.5t48 -69.5 t17 -89.5h-124q0 46 -28.5 76t-82.5 30q-51 0 -79 -26.5t-28 -66.5q0 -19 4.5 -35t11.5 -30.5t16 -29t17 -30.5h146v-87h-118q1 -8 1.5 -15.5t-0.5 -16.5q0 -35 -15.5 -68.5t-48.5 -60.5l1 -1q62 29 149 -2q46 -17 76 -8t56 35z" />
<glyph unicode="&#xa4;" horiz-adv-x="656" d="M646 171q-34 -80 -100 -125.5t-162 -45.5q-50 0 -95 15.5t-81.5 43.5t-64.5 67t-43 86h-75v75h59q-1 8 -1.5 17t-0.5 18q0 6 0.5 12t0.5 13h-58v74h72q15 48 43.5 89t67.5 70t86.5 45.5t100.5 16.5q145 0 232 -99l-56 -90q-26 38 -70 61.5t-102 23.5q-62 0 -109 -32 t-71 -85h333l-46 -74h-307q-1 -6 -1 -12.5v-12.5q0 -9 0.5 -18t1.5 -17h269l-46 -75h-201q23 -50 65.5 -79t96.5 -29q48 0 81 16.5t57 50.5h124z" />
<glyph unicode="&#xa5;" horiz-adv-x="601" d="M555 465v-74h-120l-56 -102h161v-75h-173v-214h-133v214h-173v75h161l-56 102h-120v74h80l-125 229h149l150 -297l151 297h149l-125 -229h80z" />
<glyph unicode="&#xa7;" horiz-adv-x="527" d="M267 303q14 -2 27.5 -5t27.5 -5q25 5 42.5 16t17.5 31q0 29 -34 40.5t-96 22.5q-12 2 -23 4.5t-22 5.5q-29 -8 -44 -20.5t-15 -27.5q0 -26 30 -40t89 -22zM431 238q14 -17 22 -38.5t8 -51.5q0 -35 -13.5 -64.5t-39 -51t-63 -34t-86.5 -12.5q-47 0 -84.5 13.5t-64 37.5 t-41 56.5t-14.5 70.5h115q0 -29 24.5 -51t66.5 -22t64.5 14t22.5 36q0 11 -4 19.5t-16.5 15t-34.5 12.5t-58 12q-44 7 -81 18t-64 28.5t-42 42t-15 60.5q0 33 16 65t54 55q-30 34 -30 91q1 33 15 61t39.5 49t61.5 32.5t80 11.5q43 0 78 -12.5t59.5 -34.5t37 -53t12.5 -68 h-116q1 31 -21.5 46.5t-50.5 15.5q-15 0 -29 -3t-25 -9t-18 -15t-7 -21q0 -22 19 -32t64 -18q40 -8 80 -17t71.5 -25.5t51 -43.5t19.5 -71q0 -35 -15 -64.5t-48 -50.5z" />
<glyph unicode="&#xa8;" horiz-adv-x="417" d="M59 602v108h110v-108h-110zM247 602v108h110v-108h-110z" />
<glyph unicode="&#xa9;" horiz-adv-x="783" d="M567 295q-16 -60 -63 -99t-112 -39q-39 0 -73 15t-59 41.5t-39 61.5t-14 75t14 75t39 61t59 41t73 15q66 0 113 -38.5t63 -99.5h-102q-11 21 -29.5 33.5t-44.5 12.5q-18 0 -34 -8t-27.5 -21.5t-18.5 -31.5t-7 -39t7 -39t18.5 -31.5t27.5 -21.5t34 -8q26 0 44 12.5 t29 32.5h102zM392 82q54 0 102 21t83.5 57.5t56 85t20.5 104.5q0 55 -20.5 104t-56 85.5t-83.5 57.5t-102 21t-102 -21t-84 -57.5t-56.5 -85.5t-20.5 -104q0 -56 20.5 -104.5t56.5 -85t84 -57.5t102 -21zM392 711q75 0 140.5 -28.5t114.5 -77.5t77.5 -114.5t28.5 -140.5 t-28.5 -141t-77.5 -115t-114.5 -77.5t-140.5 -28.5t-141 28.5t-115 77.5t-77.5 115t-28.5 141t28.5 140.5t77.5 114.5t115 77.5t141 28.5z" />
<glyph unicode="&#xaa;" horiz-adv-x="409" d="M268 549q0 37 -23.5 62.5t-56.5 25.5q-16 0 -30.5 -6.5t-25 -18.5t-17 -28t-6.5 -35q0 -38 23.5 -62.5t55.5 -24.5q33 0 56.5 25t23.5 62zM347 395h-76v33q-18 -19 -42 -29.5t-52 -10.5q-30 0 -57 12.5t-47 34t-31.5 51t-11.5 63.5t11.5 63.5t31.5 51t47 34t57 12.5 q57 0 94 -40v34h76v-309z" />
<glyph unicode="&#xab;" horiz-adv-x="423" d="M181 485v-105l-100 -80l100 -82v-105l-158 137v99zM293 300l100 -82v-105l-158 137v99l158 136v-105z" />
<glyph unicode="&#xac;" d="M178 282h-132v131h132v-131z" />
<glyph unicode="&#xae;" horiz-adv-x="783" d="M426 370q20 0 29.5 11.5t9.5 30.5q0 20 -9.5 31t-29.5 11h-72v-84h72zM568 175h-110l-54 108h-50v-108h-98v369h176q65 0 99 -36t34 -96q0 -38 -18 -66t-48 -43zM654 350q0 55 -20.5 104t-56 85.5t-83.5 57.5t-102 21t-102 -21t-84 -57.5t-56.5 -85.5t-20.5 -104 q0 -56 20.5 -104.5t56.5 -85t84 -57.5t102 -21t102 21t83.5 57.5t56 85t20.5 104.5zM753 350q0 -75 -28.5 -141t-77.5 -115t-114.5 -77.5t-140.5 -28.5t-141 28.5t-115 77.5t-77.5 115t-28.5 141t28.5 140.5t77.5 114.5t115 77.5t141 28.5t140.5 -28.5t114.5 -77.5 t77.5 -114.5t28.5 -140.5z" />
<glyph unicode="&#xaf;" horiz-adv-x="403" d="M40 682h323v-87h-323v87z" />
<glyph unicode="&#xb0;" horiz-adv-x="369" d="M184 461q16 0 30 6t24.5 16.5t16.5 25t6 30.5q0 32 -22.5 54.5t-54.5 22.5t-54.5 -22.5t-22.5 -54.5q0 -16 6 -30.5t16.5 -25t24.5 -16.5t30 -6zM184 692q32 0 60 -12t49 -33t33 -49t12 -59q0 -32 -12 -60t-33 -49t-49 -33t-60 -12t-60 12t-48.5 33t-32.5 49t-12 60 q0 31 12 59t32.5 49t48.5 33t60 12z" />
<glyph unicode="&#xb1;" horiz-adv-x="1319" d="M374 471q0 18 -5.5 35t-17 30.5t-29.5 21.5t-43 8q-24 0 -42 -8t-29.5 -21.5t-17 -30.5t-5.5 -35v-131h315v-127h-315v-213h-132v468q0 48 16 89.5t45.5 72t71 47.5t93.5 17t94 -17t71.5 -47.5t45.5 -72t16 -89.5v-43h-132v46zM905 471q0 18 -5.5 35t-17 30.5t-29.5 21.5 t-43 8q-24 0 -42 -8t-29.5 -21.5t-17 -30.5t-5.5 -35v-131h315v-127h-315v-213h-132v468q0 48 16 89.5t45.5 72t71 47.5t93.5 17t94 -17t71.5 -47.5t45.5 -72t16 -89.5v-43h-132v46zM1257 0h-132v744h132v-744z" />
<glyph unicode="&#xb2;" horiz-adv-x="366" d="M39 543q0 30 9.5 57.5t28.5 48.5t47 34t65 13t64 -11.5t45 -30t26.5 -41.5t8.5 -47q0 -30 -10 -52.5t-27 -39.5t-40.5 -31.5t-51.5 -29.5q-33 -17 -55.5 -35t-24.5 -38h208v-76h-299v36q0 36 11 63.5t29 48.5t41.5 37t48.5 30q30 16 47.5 28t26.5 22t11.5 19t2.5 19 q0 21 -14.5 37t-47.5 16q-32 0 -50 -21.5t-18 -55.5h-82z" />
<glyph unicode="&#xb3;" horiz-adv-x="368" d="M336 392q0 -25 -10 -49.5t-29.5 -43.5t-49 -31t-67.5 -12q-39 0 -67.5 11.5t-48 31t-29.5 46t-11 56.5h83q0 -32 19 -50.5t53 -18.5q35 0 55 17.5t20 43.5q0 55 -70 55h-27v71h16q38 0 53.5 14t15.5 35q0 24 -15 38t-44 14q-33 0 -48.5 -19.5t-15.5 -43.5h-82 q0 28 9.5 53.5t28.5 44.5t46 30t62 11q36 0 62 -10.5t43.5 -27t25.5 -38t8 -42.5q0 -29 -14 -51.5t-41 -36.5q38 -11 53.5 -39t15.5 -59z" />
<glyph unicode="&#xb4;" horiz-adv-x="417" d="M211 602h-97l93 144h144z" />
<glyph unicode="&#xb6;" horiz-adv-x="611" d="M547 0h-104v594h-75v-594h-104v248h-13q-51 0 -93 16.5t-71.5 46t-45.5 70.5t-16 89q0 51 15 92.5t44.5 70.5t72 45t97.5 16h293v-694z" />
<glyph unicode="&#xb7;" d="M178 282h-132v131h132v-131z" />
<glyph unicode="&#xb8;" horiz-adv-x="308" d="M268 -131q0 -22 -9.5 -38.5t-25 -28t-36.5 -17.5t-43 -6q-37 0 -64.5 11.5t-49.5 28.5l17 36q27 -15 51 -20t42 -3t28 11t10 23q0 13 -7.5 21.5t-19.5 11.5t-25.5 2t-25.5 -7l-38 23l41 83h65l-41 -60q18 8 41 8.5t43 -7.5t33.5 -26t13.5 -46z" />
<glyph unicode="&#xb9;" horiz-adv-x="257" d="M183 264h-82v300h-67v53q14 0 28.5 5t26 14t19 23.5t9.5 34.5h66v-430z" />
<glyph unicode="&#xba;" horiz-adv-x="371" d="M186 460q32 0 54 24.5t22 64.5t-22 65t-54 25t-54 -25t-22 -65t22 -64.5t54 -24.5zM186 711q32 0 60.5 -12.5t49.5 -34t33 -51.5t12 -64q0 -35 -12 -64t-33 -51t-49.5 -34t-60.5 -12t-60.5 12t-49.5 34t-33.5 51t-12.5 64q0 34 12.5 64t33.5 51.5t49.5 34t60.5 12.5z" />
<glyph unicode="&#xbb;" horiz-adv-x="422" d="M187 349v-99l-158 -137v105l100 82l-100 80v105zM399 250l-158 -137v105l100 82l-100 80v105l158 -136v-99z" />
<glyph unicode="&#xbc;" horiz-adv-x="744" d="M591 330l-106 -170h106v170zM668 88v-88h-77v88h-187v72l169 270h95v-270h46v-72h-46zM187 -12h-84l407 706h84zM101 564h-67v53q29 1 54.5 19t28.5 58h66v-430h-82v300z" />
<glyph unicode="&#xbd;" horiz-adv-x="796" d="M762 76v-76h-299v37q0 36 11 63.5t29 48.5t41.5 37t48.5 29q30 16 47.5 28.5t26.5 22.5t11.5 19t2.5 18q0 22 -14.5 37.5t-46.5 15.5t-50.5 -21.5t-18.5 -54.5h-82q0 29 9.5 56.5t28.5 48.5t47 34t65 13t64 -11.5t45 -30t26.5 -41.5t8.5 -47q0 -30 -10 -52t-27 -39.5 t-40.5 -31.5t-51.5 -29q-33 -18 -55.5 -36t-24.5 -38h208zM186 -12h-84l408 706h83zM101 564h-67v53q29 1 54 19t29 58h65v-430h-81v300z" />
<glyph unicode="&#xbe;" horiz-adv-x="848" d="M696 330l-107 -170h107v170zM772 88v-88h-76v88h-188v72l169 270h95v-270h46v-72h-46zM291 -12h-84l407 706h84zM179 256q-39 0 -67.5 11.5t-48 31t-29.5 46t-10 56.5h82q0 -32 19.5 -50.5t53.5 -18.5q35 0 54.5 17.5t19.5 43.5q0 55 -70 55h-27v71h16q39 0 54 14t15 35 q0 24 -15 38t-44 14q-33 0 -48.5 -19.5t-15.5 -43.5h-82q0 28 10 53.5t28.5 44.5t45.5 30t62 11q36 0 62 -10.5t43.5 -27t25.5 -38t8 -42.5q0 -29 -14 -51.5t-41 -36.5q38 -11 53.5 -39t15.5 -59q0 -25 -10 -49.5t-29.5 -43.5t-48.5 -31t-68 -12z" />
<glyph unicode="&#xbf;" horiz-adv-x="552" d="M518 214q0 -50 -16.5 -92t-47.5 -72t-75.5 -46.5t-100.5 -16.5q-55 0 -98 15.5t-73 42.5t-45.5 64.5t-15.5 81.5q0 31 9 56t24.5 46t37 38.5t46.5 34.5q34 23 48.5 46.5t14.5 55.5v23h122v-23q0 -39 -9.5 -68t-25.5 -51t-35.5 -38t-39.5 -30q-33 -24 -47 -44t-14 -46 q0 -36 26.5 -59t74.5 -23q54 0 82 30t28 75h130zM221 698h133v-131h-133v131z" />
<glyph unicode="&#xc0;" horiz-adv-x="667" d="M331 547l-97 -285h194zM193 139l-47 -139h-140l242 694h167l242 -694h-140l-47 139h-277zM306 893l93 -141h-97l-144 141h148z" />
<glyph unicode="&#xc1;" horiz-adv-x="667" d="M331 547l-97 -285h194zM193 139l-47 -139h-140l242 694h167l242 -694h-140l-47 139h-277zM361 752h-97l93 141h148z" />
<glyph unicode="&#xc2;" horiz-adv-x="667" d="M331 547l-97 -285h194zM193 139l-47 -139h-140l242 694h167l242 -694h-140l-47 139h-277zM161 752l111 142h119l110 -142h-108l-62 83l-61 -83h-109z" />
<glyph unicode="&#xc3;" horiz-adv-x="667" d="M331 547l-97 -285h194zM193 139l-47 -139h-140l242 694h167l242 -694h-140l-47 139h-277zM507 882q-3 -23 -11 -44.5t-21 -38t-31 -26.5t-41 -10q-22 0 -41.5 6t-36.5 12.5t-32.5 12.5t-30.5 6q-35 0 -45 -41h-61q3 22 11 43.5t21.5 38t32.5 26.5t44 10q22 0 41 -6 t36 -12.5t32 -12.5t29 -6q17 0 27 9.5t16 32.5h61z" />
<glyph unicode="&#xc4;" horiz-adv-x="667" d="M331 547l-97 -285h194zM193 139l-47 -139h-140l242 694h167l242 -694h-140l-47 139h-277zM299 874v-111h-123v111h123zM487 874v-111h-123v111h123z" />
<glyph unicode="&#xc5;" horiz-adv-x="667" d="M331 801q20 0 34 14.5t14 34.5t-14 34.5t-34 14.5t-33.5 -14.5t-13.5 -34.5t13.5 -34.5t33.5 -14.5zM331 547l-97 -285h194zM193 139l-47 -139h-140l242 694h167l242 -694h-140l-47 139h-277zM331 956q22 0 41.5 -8.5t33.5 -23t22.5 -33.5t8.5 -41q0 -45 -30.5 -75.5 t-75.5 -30.5q-22 0 -41 8.5t-33.5 22.5t-23 33.5t-8.5 41.5t8.5 41t23 33.5t33.5 23t41 8.5z" />
<glyph unicode="&#xc6;" horiz-adv-x="965" d="M420 571h-80l-107 -309h187v309zM935 0h-515v139h-227l-48 -139h-139l245 694h677v-123h-375v-148h318v-123h-318v-177h382v-123z" />
<glyph unicode="&#xc7;" horiz-adv-x="708" d="M684 220q-16 -52 -45 -94.5t-68.5 -72.5t-88 -47t-104.5 -18l-33 -47q19 8 42 8.5t43 -8t33.5 -26.5t13.5 -46q0 -22 -9.5 -38.5t-25.5 -28t-37 -17.5t-43 -6q-36 0 -63.5 11.5t-49.5 28.5l17 36q27 -15 51 -20t41.5 -2.5t28 11.5t10.5 22t-7.5 21.5t-19.5 11.5t-25.5 2 t-25.5 -7l-39 23l37 75q-61 10 -113 41t-90 78.5t-59.5 108.5t-21.5 130q0 76 26 142t71 115t106.5 77t132.5 28q59 0 109.5 -16t91 -46t70 -73t45.5 -96h-143q-25 48 -69 78t-104 30q-43 0 -80 -19t-64.5 -51.5t-43.5 -76t-16 -92.5t16 -92.5t43.5 -76.5t64.5 -52t80 -19 q60 0 104 31t69 79h142z" />
<glyph unicode="&#xc8;" horiz-adv-x="608" d="M578 0h-514v694h507v-123h-375v-148h320v-123h-320v-177h382v-123zM279 893l93 -141h-97l-144 141h148z" />
<glyph unicode="&#xc9;" horiz-adv-x="608" d="M578 0h-514v694h507v-123h-375v-148h320v-123h-320v-177h382v-123zM361 752h-97l93 141h148z" />
<glyph unicode="&#xca;" horiz-adv-x="608" d="M578 0h-514v694h507v-123h-375v-148h320v-123h-320v-177h382v-123zM161 752l111 142h119l110 -142h-108l-62 83l-61 -83h-109z" />
<glyph unicode="&#xcb;" horiz-adv-x="608" d="M578 0h-514v694h507v-123h-375v-148h320v-123h-320v-177h382v-123zM299 874v-111h-123v111h123zM487 874v-111h-123v111h123z" />
<glyph unicode="&#xcc;" horiz-adv-x="265" d="M199 0h-132v694h132v-694zM102 893l93 -141h-97l-144 141h148z" />
<glyph unicode="&#xcd;" horiz-adv-x="265" d="M199 0h-132v694h132v-694zM172 752h-97l93 141h148z" />
<glyph unicode="&#xce;" horiz-adv-x="265" d="M199 0h-132v694h132v-694zM-37 752l111 142h119l110 -142h-108l-62 83l-61 -83h-109z" />
<glyph unicode="&#xcf;" horiz-adv-x="265" d="M199 0h-132v694h132v-694zM104 874v-111h-123v111h123zM292 874v-111h-123v111h123z" />
<glyph unicode="&#xd0;" horiz-adv-x="691" d="M526 348q0 38 -7.5 77.5t-27.5 72t-55 53t-91 20.5h-124v-127h163v-123h-163v-198h124q59 0 94.5 23.5t55 57.5t25.5 73t6 71zM658 347q0 -80 -22 -144t-63 -109t-99 -69.5t-129 -24.5h-257v321h-73v123h73v250h257q72 0 130 -24t98.5 -69t62.5 -109.5t22 -144.5z" />
<glyph unicode="&#xd1;" horiz-adv-x="702" d="M638 0h-159l-283 494v-494h-132v694h159l282 -494v494h133v-694zM422 853q20 0 31.5 12.5t17.5 29.5h55q-6 -52 -35 -86t-71 -34q-21 0 -37.5 7t-31.5 15.5t-29 15.5t-30 7q-20 0 -31.5 -12.5t-17.5 -29.5h-54q5 52 33.5 86t71.5 34q21 0 37.5 -7t31.5 -15.5t29 -15.5 t30 -7z" />
<glyph unicode="&#xd2;" horiz-adv-x="745" d="M373 113q43 0 80.5 18.5t65.5 51t44 75.5t16 92q0 48 -16 91t-44 75.5t-65.5 51t-80.5 18.5t-81 -18.5t-66 -51t-44 -75.5t-16 -91q0 -49 16 -92t44 -75.5t66 -51t81 -18.5zM373 711q73 0 135.5 -28t107.5 -77t70.5 -115t25.5 -141q0 -76 -25.5 -142t-70.5 -115 t-107.5 -77t-135.5 -28q-74 0 -136.5 28t-107.5 77t-70.5 115t-25.5 142q0 75 25.5 141t70.5 115t107.5 77t136.5 28zM324 893l93 -141h-97l-144 141h148z" />
<glyph unicode="&#xd3;" horiz-adv-x="745" d="M373 113q43 0 80.5 18.5t65.5 51t44 75.5t16 92q0 48 -16 91t-44 75.5t-65.5 51t-80.5 18.5t-81 -18.5t-66 -51t-44 -75.5t-16 -91q0 -49 16 -92t44 -75.5t66 -51t81 -18.5zM373 711q73 0 135.5 -28t107.5 -77t70.5 -115t25.5 -141q0 -76 -25.5 -142t-70.5 -115 t-107.5 -77t-135.5 -28q-74 0 -136.5 28t-107.5 77t-70.5 115t-25.5 142q0 75 25.5 141t70.5 115t107.5 77t136.5 28zM416 752h-97l93 141h148z" />
<glyph unicode="&#xd4;" horiz-adv-x="745" d="M373 113q43 0 80.5 18.5t65.5 51t44 75.5t16 92q0 48 -16 91t-44 75.5t-65.5 51t-80.5 18.5t-81 -18.5t-66 -51t-44 -75.5t-16 -91q0 -49 16 -92t44 -75.5t66 -51t81 -18.5zM373 711q73 0 135.5 -28t107.5 -77t70.5 -115t25.5 -141q0 -76 -25.5 -142t-70.5 -115 t-107.5 -77t-135.5 -28q-74 0 -136.5 28t-107.5 77t-70.5 115t-25.5 142q0 75 25.5 141t70.5 115t107.5 77t136.5 28zM203 752l111 142h119l110 -142h-108l-62 83l-61 -83h-109z" />
<glyph unicode="&#xd5;" horiz-adv-x="745" d="M373 113q43 0 80.5 18.5t65.5 51t44 75.5t16 92q0 48 -16 91t-44 75.5t-65.5 51t-80.5 18.5t-81 -18.5t-66 -51t-44 -75.5t-16 -91q0 -49 16 -92t44 -75.5t66 -51t81 -18.5zM373 711q73 0 135.5 -28t107.5 -77t70.5 -115t25.5 -141q0 -76 -25.5 -142t-70.5 -115 t-107.5 -77t-135.5 -28q-74 0 -136.5 28t-107.5 77t-70.5 115t-25.5 142q0 75 25.5 141t70.5 115t107.5 77t136.5 28zM558 882q-3 -23 -11 -44.5t-21 -38t-31 -26.5t-41 -10q-22 0 -41.5 6t-36.5 12.5t-32.5 12.5t-30.5 6q-35 0 -45 -41h-61q3 22 11 43.5t21.5 38t32.5 26.5 t44 10q22 0 41 -6t36 -12.5t32 -12.5t29 -6q17 0 27 9.5t16 32.5h61z" />
<glyph unicode="&#xd6;" horiz-adv-x="745" d="M373 113q43 0 80.5 18.5t65.5 51t44 75.5t16 92q0 48 -16 91t-44 75.5t-65.5 51t-80.5 18.5t-81 -18.5t-66 -51t-44 -75.5t-16 -91q0 -49 16 -92t44 -75.5t66 -51t81 -18.5zM373 711q73 0 135.5 -28t107.5 -77t70.5 -115t25.5 -141q0 -76 -25.5 -142t-70.5 -115 t-107.5 -77t-135.5 -28q-74 0 -136.5 28t-107.5 77t-70.5 115t-25.5 142q0 75 25.5 141t70.5 115t107.5 77t136.5 28zM344 874v-111h-123v111h123zM532 874v-111h-123v111h123z" />
<glyph unicode="&#xd7;" horiz-adv-x="514" d="M257 183l-178 -178l-69 69l178 179l-178 177l69 69l178 -178l178 178l69 -69l-178 -177l178 -179l-69 -69z" />
<glyph unicode="&#xd8;" horiz-adv-x="745" d="M247 163q26 -23 58 -36.5t68 -13.5q43 0 80.5 18.5t65.5 51t44 75.5t16 92q0 67 -29 120zM506 529q-27 27 -61 42t-72 15q-43 0 -81 -18.5t-66 -51t-44 -75.5t-16 -91q0 -72 34 -131zM646 568q32 -46 49 -101t17 -117q0 -76 -25.5 -142t-70.5 -115t-107.5 -77t-135.5 -28 q-65 0 -120 21.5t-99 59.5l-69 -71l-52 52l72 73q-34 46 -53 103.5t-19 123.5q0 75 25.5 141t70.5 115t107.5 77t136.5 28q67 0 124 -23t102 -65l69 70l52 -51z" />
<glyph unicode="&#xd9;" horiz-adv-x="650" d="M593 275q0 -66 -17.5 -119.5t-51 -90.5t-83.5 -57t-116 -20t-115.5 20t-83.5 57t-51 90.5t-17 119.5v419h132v-423q0 -155 135 -155t135 155v423h133v-419zM284 893l93 -141h-97l-144 141h148z" />
<glyph unicode="&#xda;" horiz-adv-x="650" d="M593 275q0 -66 -17.5 -119.5t-51 -90.5t-83.5 -57t-116 -20t-115.5 20t-83.5 57t-51 90.5t-17 119.5v419h132v-423q0 -155 135 -155t135 155v423h133v-419zM377 752h-97l93 141h148z" />
<glyph unicode="&#xdb;" horiz-adv-x="650" d="M593 275q0 -66 -17.5 -119.5t-51 -90.5t-83.5 -57t-116 -20t-115.5 20t-83.5 57t-51 90.5t-17 119.5v419h132v-423q0 -155 135 -155t135 155v423h133v-419zM157 752l111 142h119l110 -142h-108l-62 83l-61 -83h-109z" />
<glyph unicode="&#xdc;" horiz-adv-x="650" d="M593 275q0 -66 -17.5 -119.5t-51 -90.5t-83.5 -57t-116 -20t-115.5 20t-83.5 57t-51 90.5t-17 119.5v419h132v-423q0 -155 135 -155t135 155v423h133v-419zM299 874v-111h-123v111h123zM487 874v-111h-123v111h123z" />
<glyph unicode="&#xdd;" horiz-adv-x="595" d="M363 0h-132v266l-233 428h149l149 -294h3l149 294h149l-234 -428v-266zM350 748h-96l93 145h143z" />
<glyph unicode="&#xde;" horiz-adv-x="610" d="M453 380q0 53 -26 77t-72 24h-159v-202h159q46 0 72 24t26 77zM585 380q0 -49 -16 -90t-45.5 -70.5t-71.5 -46t-94 -16.5h-162v-157h-132v694h132v-90h160q54 0 97 -16t72 -45t44.5 -70.5t15.5 -92.5z" />
<glyph unicode="&#xdf;" horiz-adv-x="590" d="M560 215q0 -53 -16 -95t-45.5 -71.5t-71 -45.5t-92.5 -16q-23 0 -49.5 5t-44.5 13v123q20 -8 41.5 -11.5t44.5 -3.5q50 0 75.5 29.5t25.5 74.5t-30 71t-75 26h-82v123h58q16 0 31 5t27 16t19.5 28.5t7.5 41.5q0 42 -24.5 66.5t-69.5 24.5q-42 0 -69.5 -29.5t-27.5 -76.5 v-513h-133v517q0 46 17 87.5t47.5 72.5t72.5 49t92 18q51 0 93 -16.5t71.5 -45t46 -65.5t16.5 -79q0 -45 -17 -81.5t-49 -62.5q54 -24 82 -71.5t28 -107.5z" />
<glyph unicode="&#xe0;" horiz-adv-x="621" d="M427 256q0 31 -10.5 58t-28.5 47t-42 31.5t-51 11.5t-51 -11.5t-42 -31t-28.5 -47t-10.5 -58.5t10.5 -57.5t28.5 -46t42 -30.5t51 -11t51 11.5t42 31t28.5 46t10.5 56.5zM559 0h-126v55q-30 -32 -70 -49t-88 -17q-50 0 -94.5 20.5t-78 56.5t-53 85t-19.5 106t19.5 106.5 t53 85.5t78 56.5t94.5 20.5q48 0 88 -17t70 -49v55h126v-515zM235 723l93 -141h-97l-143 141h147z" />
<glyph unicode="&#xe1;" horiz-adv-x="621" d="M427 256q0 31 -10.5 58t-28.5 47t-42 31.5t-51 11.5t-51 -11.5t-42 -31t-28.5 -47t-10.5 -58.5t10.5 -57.5t28.5 -46t42 -30.5t51 -11t51 11.5t42 31t28.5 46t10.5 56.5zM559 0h-126v55q-30 -32 -70 -49t-88 -17q-50 0 -94.5 20.5t-78 56.5t-53 85t-19.5 106t19.5 106.5 t53 85.5t78 56.5t94.5 20.5q48 0 88 -17t70 -49v55h126v-515zM332 582h-97l93 141h148z" />
<glyph unicode="&#xe2;" horiz-adv-x="621" d="M427 256q0 31 -10.5 58t-28.5 47t-42 31.5t-51 11.5t-51 -11.5t-42 -31t-28.5 -47t-10.5 -58.5t10.5 -57.5t28.5 -46t42 -30.5t51 -11t51 11.5t42 31t28.5 46t10.5 56.5zM559 0h-126v55q-30 -32 -70 -49t-88 -17q-50 0 -94.5 20.5t-78 56.5t-53 85t-19.5 106t19.5 106.5 t53 85.5t78 56.5t94.5 20.5q48 0 88 -17t70 -49v55h126v-515zM292 665l-61 -83h-109l111 142h118l111 -142h-108z" />
<glyph unicode="&#xe3;" horiz-adv-x="621" d="M427 256q0 31 -10.5 58t-28.5 47t-42 31.5t-51 11.5t-51 -11.5t-42 -31t-28.5 -47t-10.5 -58.5t10.5 -57.5t28.5 -46t42 -30.5t51 -11t51 11.5t42 31t28.5 46t10.5 56.5zM559 0h-126v55q-30 -32 -70 -49t-88 -17q-50 0 -94.5 20.5t-78 56.5t-53 85t-19.5 106t19.5 106.5 t53 85.5t78 56.5t94.5 20.5q48 0 88 -17t70 -49v55h126v-515zM465 712q-3 -23 -11 -44.5t-21 -38t-31 -26.5t-42 -10q-22 0 -41 6t-36 12.5t-32.5 12.5t-30.5 6q-35 0 -45 -41h-62q3 22 11.5 43.5t22 38.5t32.5 27t44 10q22 0 41 -6t35.5 -13t31.5 -13t29 -6q17 0 27 9.5 t16 32.5h62z" />
<glyph unicode="&#xe4;" horiz-adv-x="621" d="M427 256q0 31 -10.5 58t-28.5 47t-42 31.5t-51 11.5t-51 -11.5t-42 -31t-28.5 -47t-10.5 -58.5t10.5 -57.5t28.5 -46t42 -30.5t51 -11t51 11.5t42 31t28.5 46t10.5 56.5zM559 0h-126v55q-30 -32 -70 -49t-88 -17q-50 0 -94.5 20.5t-78 56.5t-53 85t-19.5 106t19.5 106.5 t53 85.5t78 56.5t94.5 20.5q48 0 88 -17t70 -49v55h126v-515zM250 703v-111h-122v111h122zM438 703v-111h-122v111h122z" />
<glyph unicode="&#xe5;" horiz-adv-x="621" d="M290 633q20 0 34 14.5t14 34.5q0 21 -14 35.5t-34 14.5t-33.5 -14.5t-13.5 -35.5q0 -20 13.5 -34.5t33.5 -14.5zM427 256q0 31 -10.5 58t-28.5 47t-42 31.5t-51 11.5t-51 -11.5t-42 -31t-28.5 -47t-10.5 -58.5t10.5 -57.5t28.5 -46t42 -30.5t51 -11t51 11.5t42 31 t28.5 46t10.5 56.5zM559 0h-126v55q-30 -32 -70 -49t-88 -17q-50 0 -94.5 20.5t-78 56.5t-53 85t-19.5 106t19.5 106.5t53 85.5t78 56.5t94.5 20.5q48 0 88 -17t70 -49v55h126v-515zM290 788q45 0 75.5 -30.5t30.5 -75.5q0 -22 -8.5 -41t-22.5 -33.5t-33.5 -23t-41.5 -8.5 t-41 8.5t-33.5 23t-23 33.5t-8.5 41t8.5 41.5t23 33.5t33.5 22.5t41 8.5z" />
<glyph unicode="&#xe6;" horiz-adv-x="987" d="M427 257q0 29 -10.5 55t-28.5 45.5t-42 31t-51 11.5t-51.5 -11.5t-42.5 -31t-28.5 -45.5t-10.5 -55t10.5 -55t28.5 -45t42.5 -30t51.5 -11t51 11t42 30t28.5 45t10.5 55zM823 317q-14 43 -48.5 67t-79.5 24q-43 0 -76.5 -24.5t-49.5 -66.5h254zM566 206q14 -47 49 -72.5 t80 -25.5q33 0 62 14t48 42h140q-23 -79 -88 -127.5t-161 -48.5q-48 0 -85.5 16t-66.5 45v-49h-110v49q-60 -60 -153 -60q-52 0 -97.5 21t-79.5 57.5t-54 85t-20 104.5t19.5 105.5t54.5 86t83.5 58t107.5 21.5q65 0 116 -27t84 -73q34 46 86.5 73t114.5 27q57 0 107.5 -21.5 t86.5 -62.5t54 -101t10 -137h-388z" />
<glyph unicode="&#xe7;" horiz-adv-x="571" d="M279 -52q16 6 36 5.5t37 -8.5t28.5 -23.5t11.5 -39.5q0 -38 -25 -59t-67 -21q-26 0 -52 12t-44 30l18 31q14 -14 33 -20.5t38 -6.5q17 0 29.5 8t12.5 24q0 13 -10.5 23t-29.5 10q-9 0 -18 -2.5t-17 -10.5l-36 24l34 66q-51 7 -93 30.5t-72 59t-46.5 80.5t-16.5 96 q0 56 20 105.5t55 86.5t84 58.5t107 21.5q46 0 86.5 -13t73 -37t55 -58.5t34.5 -77.5h-142q-15 26 -43 42t-64 16q-27 0 -51 -11.5t-42 -31t-28.5 -45.5t-10.5 -56q0 -29 10.5 -54.5t28.5 -45t42 -30.5t51 -11q37 0 65 16t43 43h141q-22 -87 -86 -136t-156 -51z" />
<glyph unicode="&#xe8;" horiz-adv-x="585" d="M422 314q-12 45 -46.5 71.5t-82.5 26.5q-45 0 -79 -26.5t-48 -71.5h256zM164 206q13 -48 47.5 -75t81.5 -27q33 0 62.5 14.5t46.5 45.5h141q-23 -79 -87.5 -127.5t-161.5 -48.5q-54 0 -102 21t-84 57.5t-57 85.5t-21 105t21 105.5t57 86t84 58t102 21.5q57 0 107.5 -21.5 t86.5 -63t54 -101.5t11 -136h-389zM255 723l93 -141h-97l-143 141h147z" />
<glyph unicode="&#xe9;" horiz-adv-x="585" d="M422 314q-12 45 -46.5 71.5t-82.5 26.5q-45 0 -79 -26.5t-48 -71.5h256zM164 206q13 -48 47.5 -75t81.5 -27q33 0 62.5 14.5t46.5 45.5h141q-23 -79 -87.5 -127.5t-161.5 -48.5q-54 0 -102 21t-84 57.5t-57 85.5t-21 105t21 105.5t57 86t84 58t102 21.5q57 0 107.5 -21.5 t86.5 -63t54 -101.5t11 -136h-389zM346 582h-97l93 141h148z" />
<glyph unicode="&#xea;" horiz-adv-x="585" d="M422 314q-12 45 -46.5 71.5t-82.5 26.5q-45 0 -79 -26.5t-48 -71.5h256zM164 206q13 -48 47.5 -75t81.5 -27q33 0 62.5 14.5t46.5 45.5h141q-23 -79 -87.5 -127.5t-161.5 -48.5q-54 0 -102 21t-84 57.5t-57 85.5t-21 105t21 105.5t57 86t84 58t102 21.5q57 0 107.5 -21.5 t86.5 -63t54 -101.5t11 -136h-389zM293 665l-61 -83h-109l111 142h118l111 -142h-108z" />
<glyph unicode="&#xeb;" horiz-adv-x="585" d="M422 314q-12 45 -46.5 71.5t-82.5 26.5q-45 0 -79 -26.5t-48 -71.5h256zM164 206q13 -48 47.5 -75t81.5 -27q33 0 62.5 14.5t46.5 45.5h141q-23 -79 -87.5 -127.5t-161.5 -48.5q-54 0 -102 21t-84 57.5t-57 85.5t-21 105t21 105.5t57 86t84 58t102 21.5q57 0 107.5 -21.5 t86.5 -63t54 -101.5t11 -136h-389zM260 703v-111h-122v111h122zM448 703v-111h-122v111h122z" />
<glyph unicode="&#xec;" horiz-adv-x="259" d="M195 0h-132v515h132v-515zM101 723l93 -141h-97l-143 141h147z" />
<glyph unicode="&#xed;" horiz-adv-x="259" d="M195 0h-132v515h132v-515zM166 582h-97l93 141h148z" />
<glyph unicode="&#xee;" horiz-adv-x="259" d="M195 0h-132v515h132v-515zM130 665l-61 -83h-109l111 142h118l111 -142h-108z" />
<glyph unicode="&#xef;" horiz-adv-x="259" d="M195 0h-132v515h132v-515zM99 703v-111h-122v111h122zM287 703v-111h-122v111h122z" />
<glyph unicode="&#xf0;" horiz-adv-x="587" d="M416 250q0 33 -10 60t-27 46.5t-40 30.5t-49 11t-49 -11t-40 -30.5t-27 -46.5t-10 -60q0 -32 10 -59t27 -46.5t40 -30t49 -10.5t49 10.5t40 30t27 46.5t10 59zM546 257q0 -60 -20 -110t-55 -86t-81.5 -56t-99.5 -20t-100 20t-82 55.5t-55 84t-20 105.5q0 64 22.5 114 t58 84t78.5 51.5t84 17.5q45 0 84 -17q-18 26 -41 50.5t-51 45.5l-74 -54l-55 34l76 55q-17 9 -34 17t-35 14l98 74q17 -8 33 -17t32 -19l62 46l55 -34l-66 -49q92 -77 139 -183.5t47 -222.5z" />
<glyph unicode="&#xf1;" horiz-adv-x="577" d="M520 0h-132v301q0 11 -3 28.5t-12.5 34t-28.5 28t-52 11.5q-45 0 -72.5 -29t-27.5 -73v-301h-132v515h126v-50q25 29 58 46t75 17q45 0 82.5 -16.5t63.5 -46t40.5 -71.5t14.5 -93v-301zM473 712q-3 -23 -11 -44.5t-21 -38t-31 -26.5t-42 -10q-22 0 -41 6t-36 12.5 t-32.5 12.5t-30.5 6q-35 0 -45 -41h-62q3 22 11.5 43.5t22 38.5t32.5 27t44 10q22 0 41 -6t35.5 -13t31.5 -13t29 -6q17 0 27 9.5t16 32.5h62z" />
<glyph unicode="&#xf2;" horiz-adv-x="579" d="M289 109q26 0 49 10.5t40.5 30t27.5 46.5t10 60t-10 61t-27.5 48t-40.5 31t-49 11t-49.5 -11t-40.5 -31t-27 -48t-10 -61t10 -60t27 -46.5t40.5 -30t49.5 -10.5zM289 528q54 0 101 -20.5t82.5 -57t56 -86t20.5 -107.5t-20.5 -107t-56 -85t-82.5 -56.5t-101 -20.5 t-101 20.5t-82 56.5t-55.5 85t-20.5 107t20.5 107.5t55.5 86t82 57t101 20.5zM248 723l93 -141h-97l-143 141h147z" />
<glyph unicode="&#xf3;" horiz-adv-x="579" d="M289 109q26 0 49 10.5t40.5 30t27.5 46.5t10 60t-10 61t-27.5 48t-40.5 31t-49 11t-49.5 -11t-40.5 -31t-27 -48t-10 -61t10 -60t27 -46.5t40.5 -30t49.5 -10.5zM289 528q54 0 101 -20.5t82.5 -57t56 -86t20.5 -107.5t-20.5 -107t-56 -85t-82.5 -56.5t-101 -20.5 t-101 20.5t-82 56.5t-55.5 85t-20.5 107t20.5 107.5t55.5 86t82 57t101 20.5zM342 582h-97l93 141h148z" />
<glyph unicode="&#xf4;" horiz-adv-x="579" d="M289 109q26 0 49 10.5t40.5 30t27.5 46.5t10 60t-10 61t-27.5 48t-40.5 31t-49 11t-49.5 -11t-40.5 -31t-27 -48t-10 -61t10 -60t27 -46.5t40.5 -30t49.5 -10.5zM289 528q54 0 101 -20.5t82.5 -57t56 -86t20.5 -107.5t-20.5 -107t-56 -85t-82.5 -56.5t-101 -20.5 t-101 20.5t-82 56.5t-55.5 85t-20.5 107t20.5 107.5t55.5 86t82 57t101 20.5zM293 665l-61 -83h-109l111 142h118l111 -142h-108z" />
<glyph unicode="&#xf5;" horiz-adv-x="579" d="M289 109q26 0 49 10.5t40.5 30t27.5 46.5t10 60t-10 61t-27.5 48t-40.5 31t-49 11t-49.5 -11t-40.5 -31t-27 -48t-10 -61t10 -60t27 -46.5t40.5 -30t49.5 -10.5zM289 528q54 0 101 -20.5t82.5 -57t56 -86t20.5 -107.5t-20.5 -107t-56 -85t-82.5 -56.5t-101 -20.5 t-101 20.5t-82 56.5t-55.5 85t-20.5 107t20.5 107.5t55.5 86t82 57t101 20.5zM465 712q-3 -23 -11 -44.5t-21 -38t-31 -26.5t-42 -10q-22 0 -41 6t-36 12.5t-32.5 12.5t-30.5 6q-35 0 -45 -41h-62q3 22 11.5 43.5t22 38.5t32.5 27t44 10q22 0 41 -6t35.5 -13t31.5 -13t29 -6 q17 0 27 9.5t16 32.5h62z" />
<glyph unicode="&#xf6;" horiz-adv-x="579" d="M289 109q26 0 49 10.5t40.5 30t27.5 46.5t10 60t-10 61t-27.5 48t-40.5 31t-49 11t-49.5 -11t-40.5 -31t-27 -48t-10 -61t10 -60t27 -46.5t40.5 -30t49.5 -10.5zM289 528q54 0 101 -20.5t82.5 -57t56 -86t20.5 -107.5t-20.5 -107t-56 -85t-82.5 -56.5t-101 -20.5 t-101 20.5t-82 56.5t-55.5 85t-20.5 107t20.5 107.5t55.5 86t82 57t101 20.5zM257 703v-111h-122v111h122zM445 703v-111h-122v111h122z" />
<glyph unicode="&#xf7;" d="M178 282h-132v131h132v-131z" />
<glyph unicode="&#xf8;" horiz-adv-x="579" d="M419 256q0 37 -15 67l-185 -187q15 -11 33 -17t38 -6q27 0 50.5 11.5t41 31t27.5 45.5t10 55zM359 379q-15 11 -32.5 17t-36.5 6q-27 0 -50.5 -11.5t-41.5 -31t-28 -46.5t-10 -57q0 -34 14 -64zM549 256q0 -56 -20.5 -104.5t-55.5 -85.5t-82 -58t-101 -21q-46 0 -87 15.5 t-74 42.5l-46 -46l-50 50l47 48q-23 34 -36.5 74t-13.5 85q0 56 20.5 105.5t55.5 86.5t82.5 58.5t101.5 21.5q45 0 85.5 -15.5t73.5 -42.5l46 46l51 -49l-48 -49q24 -34 37.5 -75t13.5 -87z" />
<glyph unicode="&#xf9;" horiz-adv-x="576" d="M516 0h-126v47q-24 -28 -57 -43.5t-74 -15.5q-46 0 -83.5 16.5t-64 46t-41 71t-14.5 92.5v301h132v-301q0 -11 3 -28t13 -33.5t29 -28t51 -11.5q45 0 72.5 29t27.5 72v301h132v-515zM251 723l93 -141h-97l-143 141h147z" />
<glyph unicode="&#xfa;" horiz-adv-x="576" d="M516 0h-126v47q-24 -28 -57 -43.5t-74 -15.5q-46 0 -83.5 16.5t-64 46t-41 71t-14.5 92.5v301h132v-301q0 -11 3 -28t13 -33.5t29 -28t51 -11.5q45 0 72.5 29t27.5 72v301h132v-515zM342 582h-97l93 141h148z" />
<glyph unicode="&#xfb;" horiz-adv-x="576" d="M516 0h-126v47q-24 -28 -57 -43.5t-74 -15.5q-46 0 -83.5 16.5t-64 46t-41 71t-14.5 92.5v301h132v-301q0 -11 3 -28t13 -33.5t29 -28t51 -11.5q45 0 72.5 29t27.5 72v301h132v-515zM286 665l-61 -83h-109l111 142h118l111 -142h-108z" />
<glyph unicode="&#xfc;" horiz-adv-x="576" d="M516 0h-126v47q-24 -28 -57 -43.5t-74 -15.5q-46 0 -83.5 16.5t-64 46t-41 71t-14.5 92.5v301h132v-301q0 -11 3 -28t13 -33.5t29 -28t51 -11.5q45 0 72.5 29t27.5 72v301h132v-515zM256 703v-111h-122v111h122zM444 703v-111h-122v111h122z" />
<glyph unicode="&#xfd;" horiz-adv-x="573" d="M517 -21q0 -51 -17 -93.5t-47 -73t-72.5 -47.5t-93.5 -17q-42 0 -80 13t-67.5 37t-49.5 57t-27 73h137q8 -25 30.5 -39t56.5 -14q27 0 45.5 9t30.5 23t17 32t5 36v55q-50 -42 -119 -42q-47 0 -86 16t-66.5 46t-42.5 71.5t-15 92.5v301h132v-301q0 -11 3 -27.5t13 -32.5 t29 -27t52 -11q44 0 72 27t28 71v301h132v-536zM328 602h-98l93 144h144z" />
<glyph unicode="&#xfe;" horiz-adv-x="624" d="M462 259q0 31 -10.5 57.5t-28.5 46t-42 30.5t-51 11t-51 -11.5t-42 -31t-28.5 -46t-10.5 -56.5t10.5 -57t28.5 -47t42 -31.5t51 -11.5t51 11t42 31t28.5 46.5t10.5 58.5zM594 259q0 -57 -19.5 -106.5t-52.5 -86t-77.5 -57t-95.5 -20.5q-45 0 -83.5 16t-67.5 45v-279h-133 v923h133v-227q29 29 67.5 44.5t83.5 15.5q51 0 95.5 -20.5t77.5 -56.5t52.5 -85t19.5 -106z" />
<glyph unicode="&#xff;" horiz-adv-x="572" d="M516 -21q0 -52 -16.5 -94.5t-46.5 -73t-72 -47t-94 -16.5q-42 0 -80 13t-67.5 37t-49.5 57t-27 73h137q6 -29 29.5 -43t57.5 -14q27 0 45.5 8.5t30 23t16.5 32t5 35.5v60q-23 -20 -53 -31t-65 -11q-47 0 -86 16.5t-66.5 46t-42.5 71t-15 92.5v301h132v-301q0 -11 3 -28 t13 -33.5t29 -28t51 -11.5q45 0 72.5 28.5t27.5 72.5v301h132v-536zM247 703v-111h-122v111h122zM435 703v-111h-122v111h122z" />
<glyph unicode="&#x131;" horiz-adv-x="259" d="M195 0h-132v515h132v-515z" />
<glyph unicode="&#x141;" horiz-adv-x="597" d="M580 0h-478v260l-87 -52v94l87 52v340h132v-260l135 81v-94l-135 -81v-217h346v-123z" />
<glyph unicode="&#x142;" horiz-adv-x="335" d="M234 340v-340h-132v260l-87 -52v94l87 52v340h132v-260l86 52v-94z" />
<glyph unicode="&#x152;" horiz-adv-x="1123" d="M578 361q-2 46 -18.5 87t-44.5 72t-64.5 48.5t-77.5 17.5q-43 0 -81 -18.5t-66 -51t-44.5 -75.5t-16.5 -91t16.5 -91.5t44.5 -75.5t66 -51t81 -19q41 0 77.5 17.5t64.5 48.5t44.5 71.5t18.5 87.5v23zM1093 123v-123h-515v68q-39 -38 -90 -59t-115 -21q-74 0 -136.5 28 t-107.5 77t-70.5 115t-25.5 142q0 75 25.5 141t70.5 115t107.5 77t136.5 28q64 0 115 -21t90 -59v63h507v-123h-375v-148h320v-123h-320v-177h383z" />
<glyph unicode="&#x153;" horiz-adv-x="966" d="M417 257q0 29 -10 55t-27.5 45.5t-40.5 31t-50 11.5q-26 0 -49.5 -11.5t-40.5 -31t-27 -45.5t-10 -55t10 -55t27 -45t40.5 -30t49.5 -11q27 0 50 11t40.5 30t27.5 45t10 55zM801 317q-14 43 -48.5 67t-79.5 24q-42 0 -76 -24.5t-49 -66.5h253zM545 206q14 -47 48.5 -72.5 t79.5 -25.5q34 0 62.5 14t48.5 42h139q-23 -79 -87.5 -127.5t-160.5 -48.5q-60 0 -111.5 25t-85.5 68q-30 -43 -79.5 -68t-109.5 -25q-54 0 -101 21t-82 57.5t-55.5 85.5t-20.5 105t20.5 105.5t55.5 86t82 58t101 21.5q60 0 109.5 -25.5t79.5 -69.5q34 44 85.5 69.5 t111.5 25.5q57 0 107.5 -21.5t86.5 -62.5t54 -101t10 -137h-388z" />
<glyph unicode="&#x160;" horiz-adv-x="648" d="M322 711q68 0 118 -20t83 -52.5t49 -73t16 -81.5h-132q0 45 -35.5 75t-98.5 30q-27 0 -51 -5t-43 -15t-30 -25.5t-11 -35.5q0 -35 36.5 -53.5t116.5 -34.5q62 -12 111.5 -27t84.5 -39t54 -59.5t19 -88.5q0 -50 -20.5 -90.5t-58 -69t-90.5 -44t-119 -15.5 q-51 0 -101.5 14.5t-91 44.5t-66 75.5t-25.5 108.5h132q0 -31 14 -53.5t36 -37.5t49 -22.5t53 -7.5q28 0 56 5t50.5 16.5t36 29t13.5 42.5q0 16 -7.5 30t-26.5 26t-50.5 22t-79.5 19t-94.5 22t-82.5 36.5t-58.5 60t-22.5 92.5q0 45 19 82t53.5 63.5t84 41t110.5 14.5z M383 777h-119l-111 142h109l61 -83l62 83h108z" />
<glyph unicode="&#x161;" horiz-adv-x="526" d="M495 162q0 -38 -17 -70.5t-47 -55.5t-71.5 -36t-90.5 -13t-91 12.5t-74 36t-52.5 57t-26.5 75.5h134q7 -15 19.5 -26.5t28 -19t31.5 -11t31 -3.5q40 0 69 13t29 33q0 11 -5 19t-18 14.5t-34.5 12t-55.5 10.5q-35 5 -72.5 13.5t-69.5 25t-52.5 44t-20.5 70.5q0 30 13.5 60 t40.5 53t68.5 37.5t97.5 14.5q44 0 82 -11.5t67.5 -32.5t48.5 -51t25 -66h-137q-6 15 -27.5 29t-58.5 14q-46 0 -68.5 -13.5t-22.5 -28.5q0 -20 29.5 -28.5t77.5 -16.5t88.5 -18.5t69.5 -28t45.5 -45t16.5 -69.5zM332 599h-119l-111 141h109l61 -82l62 82h108z" />
<glyph unicode="&#x178;" horiz-adv-x="595" d="M364 0h-133v266l-233 428h149l150 -297l151 297h149l-233 -428v-266zM272 874v-111h-123v111h123zM460 874v-111h-123v111h123z" />
<glyph unicode="&#x17d;" horiz-adv-x="594" d="M568 123v-123h-543v118l370 450v3h-357v123h520v-117l-369 -451v-3h379zM371 777h-118l-111 142h108l62 -83l61 83h109z" />
<glyph unicode="&#x17e;" horiz-adv-x="493" d="M471 124v-124h-450v114l264 274v3h-253v124h430v-118l-260 -270v-3h269zM311 599h-119l-111 141h109l61 -82l62 82h108z" />
<glyph unicode="&#x192;" horiz-adv-x="470" d="M466 573q-27 7 -50 7t-41 -8.5t-30.5 -27t-19.5 -49.5l-8 -40h85v-74h-100l-47 -218q-21 -101 -87.5 -140t-163.5 -12v110q27 -6 50 -6.5t41 8t31 27t19 50.5l38 181h-84v74h100l16 76q22 102 88.5 141t162.5 11v-110z" />
<glyph unicode="&#x2c6;" horiz-adv-x="417" d="M206 665l-61 -83h-109l111 142h118l111 -142h-108z" />
<glyph unicode="&#x2c7;" horiz-adv-x="420" d="M269 582h-118l-111 142h108l62 -83l61 83h109z" />
<glyph unicode="&#x2d8;" horiz-adv-x="390" d="M350 723q-5 -57 -46.5 -94.5t-108.5 -37.5t-108.5 37.5t-46.5 94.5h69q8 -26 29.5 -43t56.5 -17t57 17t29 43h69z" />
<glyph unicode="&#x2d9;" horiz-adv-x="203" d="M163 703v-111h-123v111h123z" />
<glyph unicode="&#x2da;" horiz-adv-x="295" d="M148 642q20 0 34 14.5t14 34.5t-14 34.5t-34 14.5t-34 -14.5t-14 -34.5t14 -34.5t34 -14.5zM148 798q22 0 41 -8.5t33.5 -23t23 -34t8.5 -41.5t-8.5 -41t-23 -33.5t-33.5 -23t-41 -8.5t-41 8.5t-33.5 23t-23 33.5t-8.5 41t8.5 41.5t23 34t33.5 23t41 8.5z" />
<glyph unicode="&#x2db;" horiz-adv-x="249" d="M209 -197q-21 -14 -44.5 -19.5t-45.5 -3.5t-40.5 12t-28.5 28q-10 17 -10.5 39.5t9.5 47.5t31.5 49t56.5 44h68q-51 -33 -72.5 -68.5t-8.5 -60.5q4 -9 13 -14t21 -5.5t25.5 2.5t25.5 11v-62z" />
<glyph unicode="&#x2dc;" horiz-adv-x="417" d="M383 712q-3 -23 -11 -44.5t-21 -38t-31 -26.5t-42 -10q-22 0 -41 6t-36 12.5t-32.5 12.5t-30.5 6q-35 0 -45 -41h-62q3 22 11.5 43.5t22 38.5t32.5 27t44 10q22 0 41 -6t35.5 -13t31.5 -13t29 -6q17 0 27 9.5t16 32.5h62z" />
<glyph unicode="&#x2dd;" horiz-adv-x="456" d="M122 582h-82l66 141h127zM306 582h-82l66 141h126z" />
<glyph unicode="&#x394;" d="M178 282h-132v131h132v-131z" />
<glyph unicode="&#x3a9;" d="M178 282h-132v131h132v-131z" />
<glyph unicode="&#x3bc;" d="M178 282h-132v131h132v-131z" />
<glyph unicode="&#x3c0;" d="M178 282h-132v131h132v-131z" />
<glyph unicode="&#x2013;" horiz-adv-x="606" d="M31 339h544v-123h-544v123z" />
<glyph unicode="&#x2014;" horiz-adv-x="951" d="M31 339h889v-123h-889v123z" />
<glyph unicode="&#x2018;" horiz-adv-x="203" d="M169 421h-135v135q0 64 34 98.5t88 40.5v-56q-29 -7 -43.5 -27.5t-14.5 -52.5v-12h71v-126z" />
<glyph unicode="&#x2019;" horiz-adv-x="203" d="M169 559q0 -63 -34 -98t-88 -40v56q29 6 43.5 27t14.5 53v11h-71v126h135v-135z" />
<glyph unicode="&#x201a;" horiz-adv-x="200" d="M169 -8q0 -63 -34 -98t-88 -40v56q29 6 43.5 27t14.5 53v11h-71v126h135v-135z" />
<glyph unicode="&#x201c;" horiz-adv-x="426" d="M169 547v-126h-135v135q0 64 34 98.5t88 40.5v-56q-29 -7 -43.5 -27.5t-14.5 -52.5v-12h71zM392 421h-135v135q0 64 34 98.5t88 40.5v-56q-29 -7 -43.5 -27.5t-14.5 -52.5v-12h71v-126z" />
<glyph unicode="&#x201d;" horiz-adv-x="426" d="M169 694v-135q0 -63 -34 -98t-88 -40v56q29 6 43.5 27t14.5 53v11h-71v126h135zM392 559q0 -63 -34 -98t-88 -40v56q29 6 43.5 27t14.5 53v11h-71v126h135v-135z" />
<glyph unicode="&#x201e;" horiz-adv-x="423" d="M169 127v-135q0 -63 -34 -98t-88 -40v56q29 6 43.5 27t14.5 53v11h-71v126h135zM392 -8q0 -63 -34 -98t-88 -40v56q29 6 43.5 27t14.5 53v11h-71v126h135v-135z" />
<glyph unicode="&#x2020;" horiz-adv-x="389" d="M247 470v-271h-106v271h-103v99h103v125h106v-125h104v-99h-104z" />
<glyph unicode="&#x2021;" horiz-adv-x="389" d="M247 338h104v-99h-104v-125h-106v125h-103v99h103v132h-103v99h103v125h106v-125h104v-99h-104v-132z" />
<glyph unicode="&#x2022;" horiz-adv-x="313" d="M157 258q-23 0 -42.5 8.5t-33.5 22.5t-22.5 33.5t-8.5 42.5q0 22 8.5 41t22.5 33.5t33.5 23t42.5 8.5q22 0 41 -8.5t33.5 -23t23 -33.5t8.5 -41q0 -23 -8.5 -42.5t-23 -33.5t-33.5 -22.5t-41 -8.5z" />
<glyph unicode="&#x2026;" horiz-adv-x="864" d="M188 0h-142v141h142v-141zM503 0h-142v141h142v-141zM818 0h-142v141h142v-141z" />
<glyph unicode="&#x2030;" horiz-adv-x="1191" d="M995 255q-32 0 -54 -23.5t-22 -56.5t22 -56.5t54 -23.5q31 0 53.5 23.5t22.5 56.5t-22.5 56.5t-53.5 23.5zM995 0q-38 0 -70 13.5t-55 37.5t-36.5 56t-13.5 68t13.5 68t36.5 55.5t55 37.5t70 14q37 0 69 -14t55.5 -37.5t37 -55.5t13.5 -68t-13.5 -68t-37 -56t-55.5 -37.5 t-69 -13.5zM601 255q-32 0 -54 -23.5t-22 -56.5t22 -56.5t54 -23.5q31 0 53.5 23.5t22.5 56.5t-22.5 56.5t-53.5 23.5zM197 439q32 0 54 23.5t22 56.5t-22 56.5t-54 23.5q-31 0 -53 -23.5t-22 -56.5t22 -56.5t53 -23.5zM601 0q-38 0 -70 13.5t-55 37.5t-36.5 56t-13.5 68 t13.5 68t36.5 55.5t55 37.5t70 14q37 0 69 -14t55.5 -37.5t37 -55.5t13.5 -68t-13.5 -68t-37 -56t-55.5 -37.5t-69 -13.5zM536 694h107l-381 -694h-107zM197 694q37 0 69.5 -13.5t55.5 -37.5t36.5 -56t13.5 -68t-13.5 -67.5t-36.5 -55.5t-55.5 -37.5t-69.5 -13.5t-69 13.5 t-55.5 37.5t-37 55.5t-13.5 67.5t13.5 68t37 56t55.5 37.5t69 13.5z" />
<glyph unicode="&#x2039;" horiz-adv-x="210" d="M181 485v-105l-100 -80l100 -82v-105l-158 137v99z" />
<glyph unicode="&#x203a;" horiz-adv-x="210" d="M188 250l-159 -137v105l100 82l-100 80v105l159 -136v-99z" />
<glyph unicode="&#x2044;" d="M178 282h-132v131h132v-131z" />
<glyph unicode="&#x2122;" horiz-adv-x="920" d="M352 694v-93h-109v-343h-99v343h-109v93h317zM870 258h-95v264l-87 -264h-104l-86 263v-263h-95v436h127l106 -317l107 317h127v-436z" />
<glyph unicode="&#x2202;" d="M178 282h-132v131h132v-131z" />
<glyph unicode="&#x220f;" d="M178 282h-132v131h132v-131z" />
<glyph unicode="&#x2211;" d="M178 282h-132v131h132v-131z" />
<glyph unicode="&#x221a;" d="M178 282h-132v131h132v-131z" />
<glyph unicode="&#x221e;" horiz-adv-x="1316" d="M1252 0h-132v515h132v-515zM374 471q0 18 -5.5 35t-17 30.5t-29.5 21.5t-43 8q-24 0 -42 -8t-29.5 -21.5t-17 -30.5t-5.5 -35v-131h315v-127h-315v-213h-132v468q0 48 16 89.5t45.5 72t71 47.5t93.5 17t94 -17t71.5 -47.5t45.5 -72t16 -89.5v-43h-132v46zM905 471 q0 18 -5.5 35t-17 30.5t-29.5 21.5t-43 8q-24 0 -42 -8t-29.5 -21.5t-17 -30.5t-5.5 -35v-131h315v-127h-315v-213h-132v468q0 48 16 89.5t45.5 72t71 47.5t93.5 17t94 -17t71.5 -47.5t45.5 -72t16 -89.5v-43h-132v46zM1252 571h-132v123h132v-123z" />
<glyph unicode="&#x222b;" d="M178 282h-132v131h132v-131z" />
<glyph unicode="&#x2248;" d="M178 282h-132v131h132v-131z" />
<glyph unicode="&#x2260;" horiz-adv-x="1067" d="M374 471q0 18 -5.5 35t-17 30.5t-29.5 21.5t-43 8q-24 0 -42 -8t-29.5 -21.5t-17 -30.5t-5.5 -35v-131h315v-127h-315v-213h-132v468q0 48 16 89.5t45.5 72t71 47.5t93.5 17t94 -17t71.5 -47.5t45.5 -72t16 -89.5v-43h-132v46zM905 471q0 18 -5.5 35t-17 30.5t-29.5 21.5 t-43 8q-24 0 -42 -8t-29.5 -21.5t-17 -30.5t-5.5 -35v-131h315v-127h-315v-213h-132v468q0 48 16 89.5t45.5 72t71 47.5t93.5 17t94 -17t71.5 -47.5t45.5 -72t16 -89.5v-43h-132v46z" />
<glyph unicode="&#x2264;" d="M178 282h-132v131h132v-131z" />
<glyph unicode="&#x2265;" d="M178 282h-132v131h132v-131z" />
<glyph unicode="&#x25ca;" d="M178 282h-132v131h132v-131z" />
<glyph unicode="&#xe000;" horiz-adv-x="515" d="M0 515h515v-515h-515v515z" />
<glyph horiz-adv-x="904" d="M761 138q-42 26 -86 42q-19 -49 -45.5 -87t-56.5 -62q54 11 102 38t86 69zM532 31q35 19 67 59t54 97q-28 8 -58.5 12.5t-62.5 6.5v-175zM704 336q-1 -37 -6.5 -70t-14.5 -64q25 -8 48 -20t45 -26q28 36 44.5 81t18.5 99h-135zM532 230q70 -3 128 -21q9 29 14.5 60.5 t6.5 66.5h-149v-106zM681 359q-1 35 -6.5 66t-14.5 60q-61 -17 -128 -20v-106h149zM683 492q9 -30 14.5 -63.5t6.5 -69.5h135q-2 54 -18.5 98.5t-44.5 81.5q-45 -30 -93 -47zM532 488q32 2 62.5 7t58.5 13q-22 57 -54 96.5t-67 59.5v-176zM573 664q30 -24 56.5 -62t45.5 -87 q44 16 86 42q-38 42 -86 69t-102 38zM479 694v-125h-92q-49 0 -88.5 -17.5t-67.5 -48t-43 -71t-15 -85.5t15 -85.5t43 -71t67.5 -48t88.5 -17.5h92v-125h-92q-79 0 -143 28t-109 75.5t-69.5 110.5t-24.5 133t24.5 133t69.5 110.5t109 75.5t143 28h92zM863 347 q0 -79 -30 -142t-78.5 -108t-110 -69.5t-124.5 -26.5l-12 -1v682v13l12 -1q63 -2 124.5 -26.5t110 -69.5t78.5 -108.5t30 -142.5z" />
</font>
</defs>
</svg>
